<svg width="96" height="75" viewBox="0 0 96 75" fill="none" xmlns="http://www.w3.org/2000/svg">
<path d="M32.3974 0.356571C28.7862 0.69725 24.7069 3.28641 13.9401 12.0078C9.52646 15.619 4.64465 19.5709 3.10654 20.8655C1.50156 22.0919 0.230957 23.659 0.230957 24.2723C0.230957 24.8855 1.43469 26.9296 2.90592 28.8374C4.37715 30.677 7.72086 34.9696 10.3289 38.3764C14.007 43.1459 25.5094 55.8192 38.2154 69.1057C38.6836 69.6508 39.3523 70.0596 39.6198 70.0596C39.9542 70.0596 41.2917 70.9453 42.696 72.1036C45.906 74.6928 48.4472 74.7609 51.5234 72.2399C66.2357 60.248 90.2435 35.0377 93.8547 27.8835L95.3259 24.8855L89.441 19.0939C81.1486 11.0539 71.5856 3.42269 68.5763 2.33251C63.8951 0.629114 56.6058 -0.12038 45.906 0.0158916C40.0879 0.0840275 34.0024 0.220299 32.3974 0.356571ZM50.3865 1.10607C50.3865 1.44674 48.9153 2.53692 47.1766 3.49082C44.0335 5.19422 43.8997 5.26235 42.2948 4.10404L40.6898 2.94573L44.0335 2.53692L47.3772 2.1281L43.0304 1.9237C39.4861 1.78742 39.0848 1.65115 40.6898 1.24234C43.4985 0.492843 50.3865 0.424707 50.3865 1.10607ZM37.6805 1.9237C37.6805 2.26438 37.3461 2.60505 36.9448 2.60505C36.6105 2.60505 36.4767 2.26438 36.6773 1.9237C36.878 1.51488 37.2123 1.24234 37.413 1.24234C37.5467 1.24234 37.6805 1.51488 37.6805 1.9237ZM59.7489 3.42269C63.1595 5.19422 64.0289 5.94371 63.8951 7.03389C63.5607 8.87356 58.612 20.3204 57.4083 21.9556C56.2046 23.5228 55.2683 22.9095 52.259 18.4126C50.7878 16.2322 50.4534 15.2783 51.0553 14.8695C51.5903 14.5288 51.2559 14.1882 50.119 13.9156C48.9822 13.6431 48.5809 13.1661 48.7816 12.4848C49.0491 11.8715 48.7816 11.3946 48.3134 11.3264C47.7784 11.2583 49.3165 11.0539 51.724 10.7814L56.0708 10.3044L52.0584 10.2363C49.8515 10.1681 47.5778 9.75932 47.0428 9.35051C46.3072 8.80542 47.5778 8.73728 51.724 8.94169C55.0677 9.1461 56.6058 9.07796 55.4021 8.73728C54.3321 8.46474 51.5903 8.12406 49.3834 8.05592C47.1766 7.98779 45.7722 7.78338 46.2403 7.57897C46.6416 7.4427 46.9091 6.96575 46.6416 6.62507C46.0397 5.60303 53.6634 5.94371 55.7365 7.03389C57.4752 7.91965 57.6089 7.91965 57.4752 6.89761C57.3414 6.01185 56.2715 5.7393 52.3259 5.46676C45.8391 5.12608 45.5047 4.64913 51.724 4.64913C57.0739 4.64913 57.8764 4.17218 52.9277 3.89964C51.189 3.76336 49.9853 3.42269 50.1859 3.08201C50.3865 2.74133 51.7909 2.60505 53.329 2.74133C54.8002 2.94573 55.5358 2.94573 54.934 2.80946C53.5296 2.46878 53.329 1.24234 54.5996 1.24234C55.0677 1.24234 57.4083 2.26438 59.7489 3.42269ZM63.0926 2.33251C63.0926 2.46878 62.4907 2.60505 61.7551 2.60505C61.0195 2.60505 60.4176 2.33251 60.4176 1.99183C60.4176 1.65115 61.0195 1.51488 61.7551 1.71929C62.4907 1.9237 63.0926 2.19624 63.0926 2.33251ZM31.6618 2.26438C31.6618 2.46878 30.2574 3.28641 28.5187 4.10404C26.7131 4.92167 25.1081 5.7393 24.8406 5.87558C24.5063 6.01185 24.3056 5.80744 24.3056 5.33049C24.3056 4.92167 25.5762 3.96777 27.1812 3.28641C29.9899 1.99183 31.6618 1.58302 31.6618 2.26438ZM39.3523 3.89964C39.5529 4.24032 38.7504 4.71727 37.5467 4.85354C36.2092 5.05795 36.6105 5.12608 38.6836 5.12608C44.7022 4.98981 43.4316 7.17016 31.1937 17.5949L24.64 23.1821L24.105 20.2522C23.8375 18.617 23.7038 16.3004 23.7706 15.2102C23.9713 13.4387 24.3056 13.098 26.3119 12.7573L28.6525 12.3485L26.1112 12.2122C24.4394 12.1441 23.7038 11.8715 24.0381 11.3946C24.3056 10.9176 25.8437 10.7814 28.2512 11.0539C30.7255 11.3264 31.528 11.2583 30.6587 10.8495C29.9231 10.5088 27.9837 10.1681 26.3119 10.1C24.64 10.0319 23.7038 9.82746 24.1719 9.62305C24.5731 9.48678 24.8406 9.00983 24.5731 8.66915C24.3725 8.32847 26.78 7.98779 30.1237 7.91965L36.0086 7.78338L30.993 7.37457C24.9075 6.82948 25.4425 6.62507 32.9993 6.55694L38.6836 6.42066L33.8018 6.21626C28.8531 5.94371 27.5156 4.64913 32.1968 4.64913C34.0693 4.64913 34.4036 4.44472 33.668 3.96777C32.9324 3.49082 33.5343 3.28641 35.808 3.28641C37.5467 3.28641 39.0848 3.55896 39.3523 3.89964ZM66.4363 3.96777C66.4363 4.30845 65.8345 4.64913 65.1657 4.64913C64.4301 4.64913 63.6276 4.30845 63.427 3.96777C63.1595 3.55896 63.7614 3.28641 64.6976 3.28641C65.6338 3.28641 66.4363 3.55896 66.4363 3.96777ZM69.9806 5.67117C69.78 6.21626 69.0444 6.69321 68.3757 6.69321C67.1719 6.69321 67.1719 6.62507 68.2419 5.39863C69.4457 3.89964 70.5825 4.10404 69.9806 5.67117ZM22.2994 8.05592C22.2994 8.3966 22.0319 8.73728 21.7644 8.73728C21.1626 8.73728 11.6664 19.7753 10.1952 22.1601C9.45958 23.4546 8.65709 23.7272 6.11588 23.7272C2.23718 23.7272 1.83594 22.5007 5.11277 20.3885C6.24963 19.639 10.2621 16.4366 13.9401 13.2343C20.2932 7.78338 22.2994 6.4888 22.2994 8.05592ZM72.3212 7.85152C71.6525 7.98779 70.4488 7.98779 69.6463 7.85152C68.7769 7.71525 69.3119 7.57897 70.7831 7.57897C72.2544 7.51084 72.9231 7.64711 72.3212 7.85152ZM70.0475 10.9176C81.7505 20.7973 85.8298 24.6811 85.0273 25.2262C84.5592 25.4987 82.018 25.7713 79.343 25.7713H74.595L72.0537 20.7292C70.6494 17.9356 69.1782 15.8234 68.8438 16.0278C68.5094 16.2322 68.4425 16.1641 68.6432 15.7553C68.8438 15.4146 68.3088 13.5068 67.4394 11.599C66.5701 9.62305 65.9682 8.05592 66.2357 8.05592C66.4363 8.05592 68.1082 9.35051 70.0475 10.9176ZM22.9013 18.0719L22.9682 24.4085H17.3507C13.472 24.4085 11.5996 24.6811 11.3989 25.2262C10.9308 26.7252 10.1283 25.2943 10.5964 23.7953C10.9308 22.637 11.5996 22.3645 13.8064 22.2963C16.3476 22.2282 16.4145 22.1601 14.6089 21.7512C12.937 21.4106 12.8033 21.2061 13.8064 20.7973C14.4751 20.5248 15.6789 20.2522 16.4814 20.2522C17.6182 20.1841 17.4845 20.0478 15.9464 19.639L13.9401 19.0939L16.2807 18.9577C18.4876 18.8214 18.4876 18.7533 16.9495 18.2763L15.2776 17.7312L16.9495 17.5949C18.4876 17.5268 18.4876 17.4587 17.2839 16.9136C16.147 16.4366 16.2139 16.3004 17.9526 16.2322C19.6913 16.2322 19.7582 16.096 18.7551 15.4827C17.6851 14.8014 17.752 14.5288 19.7582 12.0078C21.6307 9.55491 21.965 9.41864 22.3663 10.5088C22.6338 11.2583 22.9013 14.6651 22.9013 18.0719ZM46.2403 11.599C47.0428 12.8254 49.3165 16.1641 51.3228 18.9577C53.3959 21.7512 55.0677 24.4767 55.0677 24.8855C55.0677 26.1801 41.7598 26.1119 41.2917 24.8173C41.091 24.3404 41.4254 21.2061 42.0273 17.8675C43.766 8.1922 43.9666 7.85152 46.2403 11.599ZM82.4192 14.12C85.0273 16.5048 86.9667 18.6851 86.8329 19.0258C86.6323 19.2983 87.0335 19.8434 87.6354 20.2522C88.7054 20.8655 88.5716 20.9336 86.9667 21.0017C85.8967 21.0017 85.2279 20.7292 85.4954 20.3204C85.6961 19.9116 85.2948 19.3665 84.6261 19.0939C83.2217 18.617 77.1362 11.0539 77.1362 9.89559C77.1362 9.48678 77.2699 9.35051 77.4037 9.48678C77.6043 9.62305 79.8111 11.7353 82.4192 14.12ZM74.6618 10.577C74.1937 10.7132 73.2575 10.7132 72.6556 10.577C71.9869 10.3725 72.3881 10.2363 73.4581 10.2363C74.595 10.2363 75.0631 10.3725 74.6618 10.577ZM40.9573 12.2122C39.4861 13.098 38.8842 12.9617 39.8204 11.8715C40.2885 11.3264 40.9573 11.0539 41.2917 11.2583C41.5592 11.4627 41.4254 11.8715 40.9573 12.2122ZM76.4674 12.4848C78.1393 13.4387 78.1393 13.4387 76.6681 13.5068C75.7987 13.5068 75.13 13.2343 75.13 12.8936C75.13 12.5529 74.595 12.0759 73.9931 11.9397C73.1237 11.7353 73.1237 11.599 73.7925 11.599C74.3275 11.5309 75.5312 11.9397 76.4674 12.4848ZM39.4861 13.9156C39.2854 14.12 38.6836 14.1882 38.2154 13.9837C37.6805 13.7793 37.8811 13.5749 38.6167 13.5749C39.3523 13.5068 39.7536 13.7112 39.4861 13.9156ZM78.273 14.597C78.0724 14.8014 77.4705 14.8695 77.0024 14.6651C76.4674 14.4607 76.6681 14.2563 77.4037 14.2563C78.1393 14.1882 78.5405 14.3926 78.273 14.597ZM41.1579 15.2102C41.5592 15.6871 40.0879 24.2041 39.4861 24.8173C38.9511 25.3624 26.1781 25.158 25.6431 24.6129C25.4425 24.4085 26.4456 23.2502 27.9168 21.9556C29.7224 20.3885 30.993 19.7753 32.2637 19.9116C33.1999 20.0478 33.4674 19.9797 32.8655 19.8434C32.1968 19.7072 31.6618 19.3665 31.6618 19.0939C31.6618 18.14 35.8749 16.2322 38.2154 16.1641L40.6898 16.0278L38.3492 15.5509L36.0086 15.0739L38.4161 14.9376C39.7536 14.9376 40.9573 15.0058 41.1579 15.2102ZM70.6494 19.9797C71.7194 22.3645 71.7194 22.3645 70.2481 22.3645C69.0444 22.3645 68.9775 22.5007 69.78 23.0458C70.4488 23.5228 68.9107 23.7272 64.7645 23.7272C60.6183 23.7272 59.0802 23.5228 59.7489 23.0458C60.4176 22.637 60.4845 22.3645 59.9495 22.3645C59.4814 22.3645 59.0802 22.0238 59.0802 21.6831C59.0802 21.2743 60.3508 20.9336 61.9558 20.9336C63.4939 20.8655 64.2295 20.7292 63.6276 20.5248C61.2201 19.9116 62.5576 18.9577 65.9682 18.8895C69.1782 18.7533 69.3119 18.7533 67.1051 18.2763L64.7645 17.7994L67.1719 17.6631C69.245 17.5949 69.6463 17.8675 70.6494 19.9797ZM61.4208 19.639C61.2201 19.9797 60.752 20.3204 60.3508 20.3204C60.0164 20.3204 59.7489 19.9797 59.7489 19.639C59.7489 19.2302 60.217 18.9577 60.8189 18.9577C61.3539 18.9577 61.6214 19.2302 61.4208 19.639ZM91.3804 23.1821L92.8516 24.7492L90.6447 24.9536C88.5716 25.158 86.5654 23.8634 86.4985 22.1601C86.4985 21.0699 89.976 21.8194 91.3804 23.1821ZM7.11899 25.0218C8.52335 25.5668 15.8126 36.8093 21.965 47.9154L23.8375 51.3222L20.6944 48.2561C16.2807 43.9635 4.57777 29.2462 4.64465 28.0879C4.71152 27.5428 4.31028 27.134 3.77528 27.134C3.24029 27.134 3.03967 26.7933 3.24029 26.4526C3.44091 26.0438 3.30717 25.7713 2.9728 25.7713C2.57155 25.7713 2.23718 25.4306 2.23718 25.0899C2.23718 24.2723 4.97902 24.2041 7.11899 25.0218ZM72.7894 25.0899C73.3244 25.9075 60.6851 25.9075 58.7458 25.0899C57.8764 24.6811 60.0833 24.4767 64.8982 24.4767C69.245 24.4085 72.5219 24.6811 72.7894 25.0899ZM23.2356 26.1801C23.8375 26.7252 24.3056 28.0197 24.3056 28.9736C24.3056 29.8594 25.1081 35.7191 26.0444 41.8513C26.9806 48.0517 27.5825 53.4344 27.4487 53.9114C27.1812 54.729 25.3756 51.9354 19.2901 41.4425C15.9464 35.651 15.7457 35.0377 17.6182 35.651C18.3538 35.9235 18.9557 35.7872 18.9557 35.3784C18.9557 34.9696 18.1532 34.5608 17.1501 34.5608L15.2776 34.4245L17.1501 34.152C19.6913 33.7431 18.6882 32.5848 15.7457 32.5848C13.472 32.5848 13.4052 32.5167 14.6758 31.5628C15.9464 30.6089 15.8795 30.6089 14.4751 30.5408C13.472 30.5408 13.0708 30.2001 13.3383 29.5869C13.5389 29.0418 13.2045 28.4967 12.4689 28.2923C11.8002 28.0879 13.5389 27.8835 16.2807 27.8153L21.2963 27.6109L17.6182 27.134L13.9401 26.657L17.9526 26.4526L21.965 26.2482L17.6182 25.7713L13.2714 25.2943L17.752 25.2262C21.0288 25.0899 22.5 25.3624 23.2356 26.1801ZM38.0148 27.2702L40.021 27.4746L40.8235 34.6289C41.2248 38.5808 41.8266 44.3723 42.0273 47.5747C42.4285 53.3663 42.4285 53.3663 41.1579 51.8673C39.9542 50.4364 32.3305 37.2181 32.3305 36.4686C32.3305 36.2642 32.8655 35.9235 33.5343 35.7872C34.203 35.5828 33.9355 35.4465 32.7986 35.3784C31.6618 35.3103 31.0599 35.0377 31.3943 34.5608C31.5949 34.152 32.5311 34.0157 33.4674 34.2882C34.5374 34.5608 34.9386 34.4245 34.6711 33.9476C34.4705 33.6069 33.4005 33.2662 32.2637 33.2662C31.1937 33.2662 30.3243 32.9255 30.3243 32.5167C30.3243 32.1079 31.4612 31.9035 33.1999 32.1079C34.738 32.2442 35.3399 32.2442 34.5374 32.1079C32.3974 31.6991 32.598 30.5408 34.8717 30.4726C36.4767 30.4726 36.5436 30.4045 35.3399 29.8594C34.1361 29.3825 34.1361 29.2462 35.1392 28.8374C35.7411 28.5648 36.6105 28.5648 37.0117 28.8374C37.3461 29.0418 37.6805 28.9736 37.6805 28.633C37.6805 28.2241 36.9448 27.7472 36.0086 27.5428C35.0724 27.2702 34.3367 26.7933 34.3367 26.3845C34.3367 25.8394 34.6042 25.8394 35.2061 26.3163C35.6074 26.7252 36.878 27.134 38.0148 27.2702ZM27.85 30.677C31.7955 38.0357 33.4005 40.9655 36.2761 46.0076C37.7473 48.733 39.0179 51.1178 39.0179 51.3222C39.0179 51.5266 37.1455 51.731 34.8717 51.7992L30.6587 51.9354L34.6711 52.1398C38.4829 52.4124 41.5592 53.6388 38.6836 53.7751C37.8811 53.7751 38.2154 54.1158 39.5529 54.4565C41.9604 55.2059 42.2948 56.1598 40.3554 56.7731C39.6198 56.9775 39.0179 57.4544 39.0179 57.7951C39.0179 58.1358 37.1455 58.5446 34.8717 58.6809L30.6587 58.8853L35.2061 59.0216C37.8142 59.0897 39.6867 58.8853 39.6867 58.4765C39.6867 57.25 42.2948 57.7951 43.0304 59.1578C43.5654 60.1799 43.5654 60.5205 42.8966 60.5205C42.3616 60.5887 42.5623 60.9975 43.2979 61.5426C44.5016 62.4965 44.1004 62.5646 39.2186 62.5646C33.6011 62.5646 30.993 61.4744 35.4736 60.9975L38.0148 60.725L35.1392 60.6568C31.7955 60.5205 29.6556 59.4985 29.6556 58.1358C29.6556 57.3863 30.5249 57.1138 32.5311 56.9775L35.3399 56.9093L32.3305 56.5005L29.3212 56.0917L27.5825 45.19C25.5762 32.9255 24.7738 26.4526 25.2419 26.4526C25.3756 26.4526 26.5794 28.3604 27.85 30.677ZM77.0024 27.4065C76.5343 27.9516 75.9993 28.2241 75.8656 28.156C75.5312 27.7472 76.5343 26.4526 77.203 26.4526C77.5374 26.4526 77.4705 26.8614 77.0024 27.4065ZM88.9729 26.8614C88.7723 27.0658 88.1704 27.134 87.7023 26.9296C87.1673 26.7252 87.3679 26.5207 88.1035 26.5207C88.8391 26.4526 89.2404 26.657 88.9729 26.8614ZM92.3835 27.6109C92.2497 28.2923 91.4472 29.178 90.511 29.655C89.5748 30.1319 89.2404 30.5408 89.7085 30.5408C90.1766 30.5408 88.7723 32.9255 86.5654 35.7872C82.553 41.17 77.1362 46.9615 77.1362 45.9395C77.1362 45.1218 83.088 34.6289 84.3586 33.0618C84.8936 32.4486 85.6961 31.9035 86.0304 31.9035C86.4317 31.9035 86.1642 32.5167 85.4954 33.2662C83.6898 35.2421 84.7598 35.7191 86.5654 33.7431C88.7723 31.4947 88.906 30.3364 87.0335 30.8133C86.1642 31.0177 85.8298 31.0177 86.2979 30.8133C86.766 30.6089 86.9667 30.0638 86.766 29.5869C86.5654 29.1099 87.4348 28.2923 88.6385 27.6791C91.6479 26.2482 92.651 26.2482 92.3835 27.6109ZM54.8671 30.3364C54.3321 31.3584 53.0615 34.3564 52.1253 37.0137C51.1221 39.6028 49.584 43.4866 48.7147 45.5307C47.8453 47.5747 46.6416 50.709 46.0397 52.4805C44.9697 55.6829 44.0335 56.6368 43.8329 54.8653C43.766 54.4565 43.5654 51.5947 43.4316 48.5968C43.231 45.5307 42.9635 42.6689 42.7629 42.1239C42.5623 41.5788 42.2948 40.1479 42.2279 39.0577C42.0273 37.2181 42.2279 37.0137 44.0335 36.8774C45.9728 36.7411 45.9728 36.7411 44.3679 37.3543L42.696 37.9676L44.301 37.8313C47.1097 37.6269 46.7753 35.9916 43.8997 35.9916C42.0273 35.9916 41.626 35.7872 42.3616 35.3103C43.231 34.6971 43.231 34.5608 42.3616 33.9476C41.626 33.4706 42.0273 33.2662 44.0335 33.1981L46.7085 33.0618L44.0335 32.5848L41.3585 32.1079L44.3679 31.9035C47.1766 31.6991 47.2435 31.6991 45.0366 31.4265C41.3585 30.9496 40.8235 29.7231 44.3679 29.9957C46.5078 30.1319 47.6447 29.8594 48.4472 29.0418C49.4503 27.8835 55.2015 26.9977 55.6027 27.9516C55.7365 28.2241 55.4021 29.2462 54.8671 30.3364ZM62.6245 27.6109C61.0195 28.2241 61.7551 29.3143 63.427 28.9055C64.3632 28.633 65.0988 28.7692 65.0988 29.178C65.0988 29.5187 64.0957 29.8594 62.9589 29.8594C61.287 29.8594 61.0195 30.0638 61.7551 30.5408C62.6245 31.154 62.6245 31.2903 61.7551 31.9035C61.0195 32.3804 61.287 32.5848 62.9589 32.5848C65.567 32.5848 65.8345 33.7431 63.2932 34.152C62.2232 34.2882 63.2264 34.4245 65.4332 34.4245C67.6401 34.4245 68.7769 34.2882 67.9744 34.152C66.1019 33.8113 66.1019 33.675 67.5732 31.9035C68.2419 31.154 69.6463 30.4726 70.7831 30.4726C71.92 30.4045 72.2544 30.2682 71.5856 30.0638C70.9838 29.9275 70.5825 29.4506 70.7831 29.1099C71.2513 28.3604 73.7925 28.2923 73.7925 28.9736C73.7925 29.3143 72.455 31.9716 70.85 34.9696C68.1082 40.0798 67.7738 40.4205 65.3663 40.8293C63.5607 41.1018 63.2932 41.3062 64.497 41.3744C66.9044 41.5106 67.3057 42.1239 66.0351 44.0317C63.962 47.234 65.7007 46.212 70.0475 41.6469C72.455 39.1259 74.4612 36.9455 74.4612 36.7411C74.4612 36.6049 75.3974 35.5828 76.5343 34.5608C78.3399 32.9255 78.4737 32.5167 77.8049 31.0858C77.1362 29.655 77.1362 29.655 78.0055 30.677C78.5405 31.3584 79.2761 31.9035 79.6774 31.9035C80.6136 31.9035 81.2824 29.8594 80.2793 29.7913C79.8111 29.7913 80.3461 29.3143 81.483 28.8374L83.4892 27.9516L81.8174 27.6109C80.6136 27.4065 80.8142 27.2702 82.6867 27.2021C85.0273 27.134 85.1611 27.2702 84.4923 28.4967C83.0211 31.2903 64.2295 50.3683 63.6945 49.5507C63.427 49.0056 62.8251 49.4825 62.1564 50.9134C60.1502 54.8653 59.4814 53.5707 58.7458 44.1679C58.5452 41.3744 58.0102 36.673 57.6758 33.7431C57.2746 30.8814 57.2077 28.156 57.4083 27.8153C57.6089 27.4065 59.0802 27.134 60.6183 27.2021C62.1564 27.2021 63.0257 27.4065 62.6245 27.6109ZM73.9931 27.6109C73.525 27.7472 72.5887 27.7472 71.9869 27.6109C71.3181 27.4065 71.7194 27.2702 72.7894 27.2702C73.9262 27.2702 74.3943 27.4065 73.9931 27.6109ZM30.3243 28.7692C30.3243 29.5187 29.0537 29.7913 28.6525 29.178C28.4518 28.8374 28.7193 28.4967 29.2543 28.4967C29.8562 28.4967 30.3243 28.633 30.3243 28.7692ZM32.4643 29.8594C31.6618 30.6089 30.7255 31.2221 30.2574 31.2221C29.3881 31.2221 32.3305 28.5648 33.2668 28.4967C33.668 28.4967 33.2668 29.1099 32.4643 29.8594ZM67.4394 29.178C67.2388 29.5187 66.7038 29.8594 66.3694 29.8594C65.9682 29.8594 65.9013 29.5187 66.1019 29.178C66.3026 28.7692 66.8376 28.4967 67.1719 28.4967C67.5732 28.4967 67.6401 28.7692 67.4394 29.178ZM64.7645 31.2221C64.5638 31.5628 64.0289 31.9035 63.6945 31.9035C63.2932 31.9035 63.2264 31.5628 63.427 31.2221C63.6276 30.8133 64.1626 30.5408 64.497 30.5408C64.8982 30.5408 64.9651 30.8133 64.7645 31.2221ZM67.4394 31.2221C67.2388 31.5628 66.7038 31.9035 66.3694 31.9035C65.9682 31.9035 65.9013 31.5628 66.1019 31.2221C66.3026 30.8133 66.8376 30.5408 67.1719 30.5408C67.5732 30.5408 67.6401 30.8133 67.4394 31.2221ZM72.455 36.9455C72.455 37.1499 72.1875 37.4906 71.7862 37.695C71.4519 37.8994 71.1175 37.7632 71.1175 37.4225C71.1175 37.0137 71.4519 36.673 71.7862 36.673C72.1875 36.673 72.455 36.8093 72.455 36.9455ZM76.8018 44.1679C76.6012 44.5086 76.0662 44.8493 75.7318 44.8493C75.3306 44.8493 75.2637 44.5086 75.4643 44.1679C75.6649 43.7591 76.1999 43.4866 76.5343 43.4866C76.9356 43.4866 77.0024 43.7591 76.8018 44.1679ZM58.2777 47.9154C58.2777 48.8693 58.0102 49.8232 57.6758 50.0276C57.3414 50.232 57.0739 49.7551 57.0739 48.9374C57.0739 47.9835 56.8064 47.6429 56.2715 47.9835C55.6696 48.3242 55.6696 48.1198 56.3383 47.3703C57.6089 45.7351 58.2777 45.9395 58.2777 47.9154ZM75.4643 46.8934C75.2637 47.234 74.595 47.5747 74.06 47.5747C73.525 47.5747 73.2575 47.234 73.4581 46.8934C73.6587 46.4846 74.3275 46.212 74.8625 46.212C75.3974 46.212 75.6649 46.4846 75.4643 46.8934ZM51.724 47.1659C51.724 47.3022 51.2559 47.6429 50.654 47.8473C50.119 48.0517 49.8515 47.9835 50.0522 47.5747C50.4534 46.8934 51.724 46.6208 51.724 47.1659ZM53.7302 47.8473C53.7302 48.0517 53.4627 48.3924 53.0615 48.5968C52.7271 48.8012 52.3928 48.6649 52.3928 48.3242C52.3928 47.9154 52.7271 47.5747 53.0615 47.5747C53.4627 47.5747 53.7302 47.711 53.7302 47.8473ZM51.5234 49.7551C51.3228 50.3002 51.1221 50.0958 51.1221 49.3463C51.0553 48.5968 51.2559 48.188 51.4565 48.4605C51.6571 48.6649 51.724 49.2781 51.5234 49.7551ZM74.4612 48.9374C74.4612 49.9595 71.92 52.3442 70.7831 52.3442C70.2481 52.3442 69.8469 52.7531 69.9806 53.1619C70.1144 54.0476 58.8795 60.4524 57.2077 60.5205C55.6696 60.5205 57.0071 59.226 60.2839 57.3863C63.1595 55.8192 63.1595 55.6148 60.217 56.7731C59.3477 57.1819 59.147 56.9775 59.4814 56.1598C59.682 55.5466 60.0833 55.0697 60.3508 55.0697C60.6183 55.0697 61.822 54.1158 63.0257 53.0256C64.8982 51.2541 65.3663 51.0497 66.0351 51.9354C66.7038 52.8212 67.0382 52.8212 68.7769 51.9354C70.4488 51.1178 70.5156 51.0497 69.1113 51.3903L67.4394 51.7992L68.9107 50.709C71.5187 48.733 74.4612 47.7791 74.4612 48.9374ZM56.0708 50.9134C55.8702 51.3222 55.1346 51.6629 54.5327 51.6629C53.6634 51.6629 53.6634 51.5266 54.8002 50.709C56.2046 49.6869 56.8064 49.7551 56.0708 50.9134ZM51.724 51.6629C51.724 52.0036 51.5903 52.3442 51.4565 52.3442C51.2559 52.3442 50.9215 52.0036 50.7209 51.6629C50.5203 51.2541 50.654 50.9815 50.9884 50.9815C51.3896 50.9815 51.724 51.2541 51.724 51.6629ZM58.4114 51.6629C58.4114 52.0036 58.1439 52.3442 57.7427 52.3442C57.4083 52.3442 57.0739 52.0036 57.0739 51.6629C57.0739 51.2541 57.4083 50.9815 57.7427 50.9815C58.1439 50.9815 58.4114 51.2541 58.4114 51.6629ZM56.4052 53.0256C56.4052 53.3663 56.1377 53.707 55.7365 53.707C55.4021 53.707 55.0677 53.3663 55.0677 53.0256C55.0677 52.6168 55.4021 52.3442 55.7365 52.3442C56.1377 52.3442 56.4052 52.6168 56.4052 53.0256ZM51.724 53.707C51.724 54.0476 51.3896 54.3883 50.9884 54.3883C50.654 54.3883 50.5203 54.0476 50.7209 53.707C50.9215 53.2981 51.2559 53.0256 51.4565 53.0256C51.5903 53.0256 51.724 53.2981 51.724 53.707ZM54.1984 54.5246C53.9977 55.0697 53.7971 54.8653 53.7971 54.1158C53.7302 53.3663 53.9309 52.9575 54.1315 53.23C54.3321 53.4344 54.399 54.0476 54.1984 54.5246ZM59.0802 53.5707C59.0802 53.8432 58.2777 54.5927 57.2746 55.2741C54.934 56.7049 49.9853 61.2019 50.654 61.2019C50.9215 61.2019 52.5265 59.9755 54.1984 58.4765C57.1408 55.8873 58.4114 55.2059 58.4114 56.228C58.4114 56.5005 56.0708 58.9534 53.2621 61.747C49.6509 65.2219 49.0491 65.9714 51.3228 64.1999C53.1284 62.7009 54.3321 62.0195 53.9977 62.5646C50.654 68.0836 47.9791 72.1036 47.5778 72.1036C46.976 72.1036 45.0366 63.1778 45.0366 60.4524C45.0366 59.226 45.5047 57.6588 46.1735 56.9775C47.3103 55.6829 48.7816 55.2741 48.0459 56.4324C47.8453 56.8412 48.1128 56.9093 48.6478 56.7049C49.7847 56.228 50.119 57.4544 49.0491 58.1358C48.7147 58.3402 48.3803 58.8853 48.3803 59.226C48.3803 59.6348 50.5872 58.4083 53.2621 56.5005C58.0771 53.0256 59.0802 52.5486 59.0802 53.5707ZM48.0459 54.3883C47.8453 54.729 47.3103 55.0697 46.976 55.0697C46.5747 55.0697 46.5078 54.729 46.7085 54.3883C46.9091 53.9795 47.4441 53.707 47.7784 53.707C48.1797 53.707 48.2466 53.9795 48.0459 54.3883ZM53.0615 55.0697C53.0615 55.4104 52.7271 55.751 52.3259 55.751C51.9915 55.751 51.8578 55.4104 52.0584 55.0697C52.259 54.6609 52.5934 54.3883 52.794 54.3883C52.9277 54.3883 53.0615 54.6609 53.0615 55.0697ZM66.1019 57.7951C65.9013 58.1358 64.0957 59.226 62.2232 60.1799C60.2839 61.1338 58.0102 62.4965 57.0739 63.3141C55.8702 64.3362 56.2715 64.1999 58.612 62.9053C60.3508 61.8833 61.9558 61.1338 62.0895 61.3382C62.4907 61.747 55.2015 68.1518 52.1253 70.0596L49.584 71.6267L50.3865 69.9914C53.1952 64.6087 55.2683 62.4965 60.2839 59.8392C65.6338 57.0456 66.7707 56.6368 66.1019 57.7951ZM43.6991 63.9273C44.2341 64.268 44.4347 64.6087 44.0335 64.6087C43.6991 64.6087 43.8329 64.9494 44.3679 65.2901C45.0366 65.767 44.0335 65.9033 41.0242 65.8351C37.7473 65.767 37.413 65.6989 39.5529 65.4945C41.091 65.3582 42.2279 64.9494 42.0273 64.6087C41.8266 64.268 40.3554 64.1317 38.7504 64.3362C36.9448 64.6087 35.6742 64.4724 35.4067 63.9955C34.8049 63.0416 42.2279 62.9734 43.6991 63.9273ZM42.696 67.3341L40.6898 67.8111L42.9635 68.0836C44.2341 68.2199 45.4378 68.765 45.5716 69.3101C45.7722 69.9914 45.5047 70.1277 44.6354 69.8552C43.4316 69.3782 43.4316 69.4463 44.5685 70.3321C45.1704 70.8091 45.7053 71.4223 45.7053 71.6948C45.7053 72.3762 40.556 69.3101 39.2186 67.8792C38.2154 66.7209 38.2823 66.6528 41.4254 66.7209C44.2341 66.789 44.4347 66.8572 42.696 67.3341Z" fill="#FEF6CE"/>
</svg>
