<svg width="80" height="83" viewBox="0 0 80 83" fill="none" xmlns="http://www.w3.org/2000/svg">
<path d="M35.9649 0.190887C35.1902 0.304764 32.7557 0.703323 30.4871 1.10188C24.1241 2.12674 17.5398 5.71376 11.9514 11.2366C8.18892 14.9375 6.91632 16.7595 4.48177 21.4853C1.10661 28.0899 0.0553305 32.8726 0 41.3562C0 47.9039 0.99595 52.1173 4.14979 58.7789C10.4575 72.159 21.5789 80.0732 36.4075 81.8383C53.7813 83.831 71.2657 72.4437 77.5734 54.9641C79.0673 50.8646 79.2887 49.2704 79.5653 42.8366C79.7866 35.4348 79.7866 35.4348 77.6841 28.944C75.9688 23.5919 75.0282 21.5991 72.3724 18.0121C68.1119 12.2046 64.2388 8.67447 58.595 5.42908C52.1767 1.72818 41.4979 -0.7201 35.9649 0.190887ZM48.0822 2.41142C65.5114 6.68169 78.6247 23.3642 78.5694 41.3562C78.5694 48.6441 77.8501 50.8077 72.5937 59.0066C71.2657 61.0563 70.0485 62.9922 69.8825 63.3338C69.2738 64.7003 73.7556 59.1774 74.7516 57.3554C75.5815 55.8181 75.7475 55.7043 75.4709 56.7861C74.8622 59.4052 70.3805 66.1806 67.116 69.426C61.4722 75.0628 54.3899 78.8206 46.865 80.1302C41.9406 81.0411 32.5897 80.5857 29.0485 79.333C17.8164 75.2905 9.29553 67.8887 4.75843 58.2095C1.38326 50.9216 0.110661 38.851 1.93657 31.4492C6.36301 13.6849 21.4129 1.67125 39.2847 1.61431C42.1619 1.55737 46.1457 1.95593 48.0822 2.41142Z" fill="#FEF6CE"/>
<path d="M38.6205 2.52592C39.8931 2.6398 41.9957 2.6398 43.3236 2.52592C44.5962 2.41205 43.545 2.29818 40.9444 2.29818C38.3439 2.29818 37.2926 2.41205 38.6205 2.52592Z" fill="#FEF6CE"/>
<path d="M34.8584 4.40387C34.8584 4.74549 36.4077 4.97324 38.3996 4.97324C40.3361 4.97324 43.1026 5.08711 44.5966 5.25792C46.4778 5.42873 46.8651 5.3718 45.9245 5.08711C43.656 4.29 34.8584 3.77757 34.8584 4.40387Z" fill="#FEF6CE"/>
<path d="M53.3939 7.138C57.2671 9.3016 61.0295 12.3193 62.4681 14.369C63.4087 15.6785 63.6854 15.7924 63.5194 14.9383C63.2981 13.6288 57.7097 8.78917 54.1132 6.91026C50.5167 5.03134 49.9634 5.20215 53.3939 7.138Z" fill="#FEF6CE"/>
<path d="M21.0256 7.99139C19.6423 8.95932 16.9864 10.8952 15.1052 12.2617C12.228 14.3114 11.73 14.8238 12.3387 15.507C12.892 16.1903 13.224 16.0195 14.5519 14.3683C15.4372 13.2865 17.7611 11.2368 19.8083 9.75643C24.1241 6.62491 24.788 6.11248 24.0687 6.16941C23.7368 6.16941 22.4088 7.02347 21.0256 7.99139Z" fill="#FEF6CE"/>
<path d="M34.5815 7.25151C34.1389 7.99169 35.4115 7.99169 36.5181 7.25151C37.1821 6.79601 37.1268 6.68214 36.1308 6.68214C35.4668 6.68214 34.7475 6.90989 34.5815 7.25151Z" fill="#FEF6CE"/>
<path d="M39.1742 7.08046C39.5615 7.25127 40.0594 7.19433 40.2254 7.02352C40.4468 6.85271 40.1148 6.6819 39.5061 6.73884C38.8975 6.73884 38.7315 6.90965 39.1742 7.08046Z" fill="#FEF6CE"/>
<path d="M42.0511 7.2514C42.0511 7.7069 44.8177 8.39014 46.6436 8.39014C47.2522 8.39014 47.5842 8.21933 47.4182 7.99158C46.8649 7.47915 42.0511 6.79591 42.0511 7.2514Z" fill="#FEF6CE"/>
<path d="M51.1255 7.70724C51.2915 7.99192 53.0621 9.18759 55.1093 10.4402C57.1012 11.6359 59.4804 13.5148 60.421 14.5397C61.3063 15.6215 62.1916 16.3616 62.3023 16.1908C62.8002 15.7353 59.7571 13.0593 55.4413 10.0416C51.4021 7.25174 50.5722 6.85319 51.1255 7.70724Z" fill="#FEF6CE"/>
<path d="M22.6302 9.64264C19.4763 11.977 16.6545 14.6531 15.9352 16.0765C15.6032 16.7028 16.9865 15.621 19.0337 13.6852C21.0256 11.6924 23.4601 9.69958 24.3454 9.24408C25.286 8.73165 26.0053 8.21922 26.0053 8.10535C26.0053 7.47904 24.9541 7.93454 22.6302 9.64264Z" fill="#FEF6CE"/>
<path d="M48.4142 8.39059C48.2482 8.67527 48.3588 8.95995 48.7462 8.95995C49.7974 8.95995 56.9904 13.458 59.1483 15.4507C60.6422 16.8742 60.8635 16.988 60.3656 15.9632C60.0336 15.2799 58.3737 13.8565 56.6584 12.8317C54.9985 11.8068 52.73 10.2695 51.6233 9.35851C49.4655 7.70735 48.9121 7.53654 48.4142 8.39059Z" fill="#FEF6CE"/>
<path d="M58.3736 8.21883C58.7056 8.56045 60.1995 9.92693 61.6935 11.2934L64.46 13.7417L62.2468 11.2934C61.0295 9.98387 59.5356 8.61739 58.9269 8.27577C58.3183 7.93415 58.097 7.93415 58.3736 8.21883Z" fill="#FEF6CE"/>
<path d="M22.2983 13.002C18.4251 16.3612 16.9865 18.0693 17.8718 18.0693C17.9825 18.0693 19.4211 16.7029 21.081 15.0517C22.7409 13.4575 24.9541 11.4077 26.0054 10.5537C27.0567 9.69963 27.7206 9.01639 27.3887 9.01639C27.112 8.95945 24.7881 10.7814 22.2983 13.002Z" fill="#FEF6CE"/>
<path d="M36.0202 9.7564C36.1308 9.87027 38.3441 10.098 40.9446 10.2688C43.6005 10.4396 45.1497 10.3258 44.5411 10.098C43.4898 9.64253 35.5222 9.30091 36.0202 9.7564Z" fill="#FEF6CE"/>
<path d="M51.7895 12.5465C55.4413 14.5393 56.8799 15.5641 57.9865 17.0445C59.4251 18.9234 57.5992 18.6387 55.4966 16.6459C54.3347 15.5641 53.1727 14.6531 52.9514 14.6531C52.6748 14.6531 51.8448 14.1407 51.0702 13.5144C50.2956 12.8881 49.2443 12.3757 48.7463 12.3757C48.2483 12.3757 49.1336 13.1728 50.6275 14.0838C54.224 16.2474 57.3779 18.9803 56.8799 19.4928C56.6586 19.7205 54.9987 18.7526 53.1174 17.3292C48.9123 14.0268 44.4858 12.3187 39.5614 12.091L35.6883 11.8632L39.2848 12.4326C45.2051 13.3436 51.1255 15.9057 53.1174 18.2971C54.224 19.7205 52.7301 19.4358 50.6829 17.7847C49.6869 16.9875 48.4143 16.3612 47.8057 16.3612C47.0311 16.4182 47.197 16.6459 48.4143 17.2153C49.3549 17.6138 50.6829 18.4679 51.4022 19.0942C53.5601 20.8592 51.7895 21.1439 49.2443 19.4358C48.027 18.5818 46.8651 18.0124 46.6991 18.1832C46.4777 18.4679 48.7463 20.176 51.8448 21.941C52.5641 22.3396 53.0068 22.909 52.8408 23.2506C52.3428 23.9908 50.9042 23.8769 50.9042 23.0228C50.9042 22.6812 49.7423 21.7702 48.4143 21.0301C45.1498 19.3789 45.2605 20.1191 48.5803 22.3965C50.0189 23.4214 51.1255 24.5032 51.0702 24.8448C50.8489 25.7558 51.7341 25.585 52.5641 24.6171C53.0621 23.9908 53.4494 23.8769 53.892 24.3324C54.2794 24.7309 54.224 25.1295 53.7814 25.585C52.9514 26.4391 52.8961 27.1792 53.6707 27.1792C54.0027 27.1792 54.224 26.7807 54.224 26.3252C54.224 25.4142 55.1093 25.1864 55.552 25.9836C55.7179 26.2682 55.3306 26.8945 54.6113 27.35C53.4494 28.1472 53.2281 28.0333 51.4575 26.2113C49.4103 24.1616 44.9285 21.2009 44.4858 21.6564C44.3199 21.7702 45.1498 22.5104 46.3118 23.2506C47.861 24.2185 48.193 24.6171 47.4737 24.7309C46.9757 24.9018 45.9244 24.5601 45.0945 23.9908C44.3199 23.4783 43.5452 23.1937 43.3792 23.3645C43.2132 23.5353 43.8219 24.1046 44.7625 24.6171C47.0311 25.8127 47.0311 26.8376 44.7072 26.3821C42.8259 26.0405 42.9919 26.3821 45.7584 28.0902C46.5331 28.6026 46.5884 28.9443 46.0904 29.4567C45.5371 30.0261 45.1498 29.9691 43.9879 29.229C43.1579 28.6596 42.3833 28.3749 42.2173 28.4888C42.1066 28.6596 42.4939 29.0581 43.1026 29.4567C44.4858 30.1969 44.5965 31.1648 43.3239 31.1648C42.6599 31.1648 42.9919 31.6772 44.4305 32.9298C46.8651 34.9796 47.197 36.2891 44.8732 34.5241C42.3833 32.6452 38.1782 32.4174 35.7436 34.0116C31.2618 36.8015 30.3212 40.6163 32.9218 45.2282C33.6964 46.5377 34.5817 47.6765 34.8583 47.6765C35.135 47.6765 35.2456 48.075 35.0797 48.5305C34.803 49.2138 35.2456 49.3846 37.0162 49.3846C38.8975 49.3846 39.2848 49.5554 39.2848 50.5233C39.2848 51.1496 39.5614 51.6051 39.8934 51.5482C40.2254 51.4343 40.668 51.719 40.834 52.1745C41 52.7439 40.834 52.8577 40.1147 52.63C39.4508 52.3453 39.1188 52.573 38.8975 53.3702C38.6208 54.395 38.5101 54.395 37.9568 53.6548C37.6249 53.1993 36.4629 52.6869 35.4116 52.4592C33.973 52.2314 33.6964 52.2884 34.305 52.7439C34.7477 53.0855 35.6883 53.3702 36.4076 53.3702C37.1822 53.3702 37.6249 53.7118 37.6249 54.2811C37.6249 55.0213 37.2375 55.1352 35.9649 54.8505C35.0243 54.6797 34.305 54.7936 34.305 55.0783C34.305 55.4199 34.6923 55.6476 35.135 55.6476C35.5776 55.6476 35.9649 55.9323 35.9649 56.2739C35.9649 56.6156 35.467 56.7864 34.8583 56.6156C34.2497 56.4447 33.7517 56.5586 33.7517 56.8433C33.7517 57.128 34.5263 57.5265 35.4116 57.6974C36.3523 57.9251 37.0716 58.4375 37.0716 58.893C37.0716 59.5193 36.8502 59.6332 36.4076 59.2346C36.0203 58.95 35.0797 58.893 34.305 59.1208C32.9218 59.5193 32.9218 59.5193 34.1944 59.5763C34.969 59.6332 35.4116 59.9179 35.2456 60.3164C35.135 60.7719 34.3604 60.9997 33.5304 60.8858C32.4791 60.715 32.0918 60.8858 32.3131 61.2844C32.5344 61.626 33.3091 61.9107 34.0837 61.9107C36.1309 61.9107 35.6883 63.0494 33.6411 63.1064L31.8152 63.1633L33.6411 63.6757C35.8543 64.359 36.0203 65.8393 33.9177 65.9532C32.5898 66.0671 32.5344 66.0671 33.6411 66.2948C34.305 66.4087 34.8583 66.9211 34.8583 67.3766C34.8583 67.946 34.0837 68.1737 32.2578 68.2876L29.6019 68.3445L32.0918 68.6862C33.8624 68.9139 34.637 69.3125 34.7477 69.9957C34.9137 70.8498 34.5263 71.0206 32.8111 71.0775C30.8192 71.1344 30.8192 71.1914 32.3131 71.533C34.5263 71.9885 34.1944 73.0703 31.9258 72.8425C30.5979 72.7287 30.3766 72.8425 30.9852 73.2411C31.4278 73.5827 32.8664 73.8674 34.139 73.8674C37.0162 73.8674 38.1782 74.3229 38.1782 75.4047C38.1782 76.1449 37.4589 76.2588 33.6411 75.9741C30.3212 75.7463 29.6573 75.8033 31.2618 76.1449C34.5817 76.8851 44.2645 76.8281 44.2645 76.0879C44.2645 75.6894 43.7112 75.5755 42.9366 75.8033C41.332 76.2018 40.5574 75.2908 41.498 74.1521C41.996 73.5258 41.996 73.298 41.5533 73.298C40.4467 73.298 40.8894 72.3301 42.2173 71.8746L43.4346 71.4761L42.0513 71.0775C41.2213 70.8498 40.502 70.9067 40.2807 71.2483C39.7274 72.1024 39.0635 71.2483 39.5061 70.1665C39.6721 69.6541 40.0594 69.4263 40.3914 69.5971C41.3873 70.2235 42.162 69.2555 41.3873 68.2876C40.834 67.6044 40.834 67.3766 41.3873 67.2058C41.7747 67.035 41.8853 66.6364 41.664 66.2948C41.3873 65.8963 41.2213 65.0991 41.2213 64.4728C41.2213 63.6757 40.8894 63.391 40.2807 63.5049C39.5061 63.6188 39.2848 63.2772 39.2848 61.9676C39.2848 61.0566 39.5614 60.0887 39.8934 59.861C40.5574 59.4624 43.1026 62.2523 43.1579 63.448C43.1579 63.7896 43.6006 63.9604 44.2092 63.7896C44.7625 63.6188 45.4265 63.7896 45.6478 64.1881C45.8691 64.5867 45.5925 64.9853 44.8732 65.1561C44.2092 65.3269 43.7112 65.6685 43.7112 65.9532C43.7112 66.6364 44.0985 66.5795 45.4265 65.8393C46.3671 65.3269 46.5884 65.4408 46.8651 66.4656C47.0864 67.3197 47.4184 67.5474 48.0823 67.2627C50.2402 66.3517 51.0702 66.2948 50.7935 67.0919C50.6275 67.5474 49.9636 67.889 49.2996 67.8321C48.691 67.8321 48.1377 68.1168 48.1377 68.5723C48.1377 68.9708 47.6397 69.3125 47.0311 69.3125C46.4224 69.3125 45.9244 69.5402 45.9244 69.8249C45.9244 70.4512 48.525 69.768 50.2402 68.6862C51.1255 68.1168 51.5682 68.0599 52.0661 68.5723C52.7854 69.3125 50.5169 70.7359 47.197 71.533C45.4818 71.9316 45.3711 72.0454 46.5884 72.1024C47.363 72.1593 49.6869 71.3622 51.7341 70.4512C55.22 68.857 56.4372 68.6862 56.4372 69.8818C56.4372 70.5651 53.7814 71.9885 50.1296 73.355C48.5803 73.8674 47.8057 74.3798 48.4143 74.3798C49.9636 74.4368 55.552 71.9885 58.0972 70.1665L60.1997 68.6862L56.8246 65.3269C54.9987 63.448 53.6707 61.7399 53.892 61.5121C54.1134 61.2844 54.8327 61.7968 55.552 62.6509C56.2713 63.5049 57.0459 64.1881 57.3225 64.1881C57.5439 64.1881 58.4291 64.8145 59.2038 65.6116L60.6424 67.035L66.1754 61.5121C71.6531 55.9323 71.8745 55.5907 74.475 48.5305C75.2496 46.31 73.811 48.5305 72.7598 51.0927C72.2065 52.5161 71.0998 54.7366 70.3805 56.0462C69.1079 58.4375 69.0526 58.4375 67.7247 57.5265C66.2308 56.5586 66.3967 55.9323 68.2227 55.9323C69.1633 55.9323 69.7719 55.0783 71.2105 51.4912C72.2065 49.0999 72.7598 47.1071 72.4831 47.1071C72.2618 47.1071 71.7085 48.075 71.3765 49.2138C70.6572 51.5482 69.9379 52.63 69.4399 52.1175C69.2186 51.9467 69.4953 50.808 69.9932 49.6693C70.4359 48.4736 70.7125 47.3918 70.5465 47.221C70.4359 47.0502 69.9379 47.8473 69.4399 48.986C68.9973 50.0678 68.3886 51.1496 68.0567 51.3774C67.3374 51.8329 67.3374 51.9467 68.3333 48.5875C68.8866 46.7655 69.1079 43.7478 69.0526 40.0469L68.9973 34.2963L68.61 40.8441C68.2227 47.164 67.614 50.0109 66.4521 50.7511C65.4561 51.4343 65.2348 50.0109 66.1201 48.1889C66.6181 47.221 66.8947 46.31 66.7287 46.1392C66.5627 45.9684 66.0648 46.7655 65.6221 47.9042C65.1795 49.043 64.5155 49.9539 64.2389 49.9539C63.4089 49.9539 63.4642 49.043 64.5155 47.0502C64.9582 46.0822 65.2348 45.1713 65.0688 45.0004C64.9028 44.7727 64.3495 45.5698 63.9069 46.7086C63.4642 47.9042 62.8003 48.8152 62.5236 48.8152C61.8043 48.8152 61.8043 48.7583 62.8556 46.1961C63.3536 45.0004 63.5749 43.3493 63.4089 42.4383C63.2429 41.5842 63.2429 40.4455 63.4089 39.99C64.0175 38.3388 64.7368 39.136 64.8475 41.5273C64.9028 43.8617 64.9028 43.8617 65.1241 41.9828C65.5115 38.7374 66.3967 38.5666 66.3967 41.7551C66.3967 43.577 66.5627 44.2603 66.8947 43.7478C67.7247 42.3814 67.0054 32.816 65.8434 30.1969C65.2901 28.8304 65.0135 27.7486 65.2901 27.7486C65.5668 27.7486 65.9541 28.261 66.1201 28.9443C66.3414 29.5706 66.6181 29.9691 66.7841 29.8553C67.0054 29.5706 66.1754 27.8625 64.1835 24.6171C63.0216 22.6812 62.8003 21.8272 63.6856 22.3965C64.5155 22.909 67.8907 28.3749 68.2227 29.7414C68.444 30.6524 68.4993 30.5954 68.5546 29.3998C68.61 28.4888 67.7247 26.6668 66.2861 24.6171C65.0688 22.7951 64.3495 21.4286 64.7922 21.5994C66.3414 22.1119 69.1633 27.407 70.0486 31.6203C70.8785 35.5489 70.8232 42.1536 69.8826 45.6837C69.6612 46.5947 69.7166 46.7086 70.2699 46.1392C70.7679 45.6837 70.9892 43.2354 71.0445 38.168C71.0998 31.3926 70.9892 30.6524 69.6059 27.5778C68.776 25.7558 67.5587 23.4783 66.8947 22.5673C65.7881 20.9162 65.7328 19.8913 66.8947 20.5746C67.8353 21.2009 71.3765 28.1472 71.3765 29.3998C71.3765 30.083 71.6531 30.5954 71.9298 30.5954C72.5938 30.5954 72.5938 30.5954 71.8191 28.261C71.0445 25.9836 67.282 19.4358 65.7328 17.6708C64.6262 16.4751 64.5708 16.4751 63.4642 17.5C62.8556 18.1263 62.1363 18.4679 61.8596 18.2971C61.0297 17.7847 61.417 19.3789 62.4129 20.5176C63.2982 21.5994 63.2982 21.6564 62.4129 21.3147C61.749 21.087 61.417 21.2578 61.417 21.7702C61.417 22.7951 58.2632 25.0726 57.5439 24.6171C56.5479 23.9908 56.9906 23.0798 58.1525 23.3645C59.0378 23.5922 59.2038 23.4783 58.9825 22.7951C58.7058 22.1119 58.9271 21.998 59.7571 22.2257C60.421 22.3965 60.753 22.2827 60.5317 21.941C60.3104 21.5994 60.5317 21.1439 60.919 20.8592C61.583 20.4607 61.5277 20.2329 60.6977 19.3789C59.7571 18.411 59.7017 18.411 60.0891 19.3219C60.2551 19.8913 60.1444 20.3468 59.8677 20.3468C58.9271 20.3468 58.4845 19.2081 59.1484 18.411C59.9231 17.443 56.5479 14.1407 52.6194 12.091C48.525 9.98431 47.8057 10.3829 51.7895 12.5465ZM65.5668 18.6956C66.1201 19.6066 64.0729 20.9731 63.2429 20.2329C62.8556 19.8913 62.6896 19.4358 62.8556 19.0942C63.0216 18.8095 63.5749 18.8665 64.0729 19.3219C64.7922 19.9483 64.9028 19.8913 64.5708 19.0373C64.1835 18.0124 65.0135 17.6708 65.5668 18.6956ZM55.3306 20.4607C55.3306 20.7454 54.9433 20.9162 54.556 20.7454C54.0027 20.5176 53.8367 20.6884 54.058 21.2578C54.224 21.7133 54.0027 22.0549 53.4494 22.0549C52.3428 22.0549 52.3428 21.5425 53.4494 20.2899C54.39 19.2081 55.3306 19.3219 55.3306 20.4607ZM59.2038 20.9162C59.2038 21.2009 58.9825 21.4855 58.6505 21.4855C58.3738 21.4855 57.5439 22.0549 56.9352 22.6812C55.8286 23.82 55.8286 23.9908 56.6586 24.4463C57.1565 24.7309 57.4332 25.1864 57.2672 25.5281C56.8246 26.2682 55.8839 26.1544 55.8839 25.4142C55.8839 25.0156 55.4413 24.3893 54.9433 23.9908C54.0027 23.3075 54.058 23.1937 55.2753 21.8272C56.6032 20.4038 59.2038 19.7774 59.2038 20.9162ZM62.9663 24.3324C63.1322 24.8448 62.9109 24.9587 62.3023 24.7309C61.8043 24.5032 61.417 24.6171 61.417 24.9587C61.417 25.3003 61.1957 25.3573 60.8637 25.1864C60.5317 24.9587 60.587 24.5601 61.0297 24.0477C61.8043 23.1367 62.6343 23.2506 62.9663 24.3324ZM49.5209 25.5281C50.0742 26.3821 49.4656 26.8376 48.4143 26.3821C47.9163 26.2113 47.695 25.8127 47.861 25.4711C48.3037 24.7309 49.0783 24.7309 49.5209 25.5281ZM60.1997 25.9266C60.3104 26.3252 60.0337 26.6099 59.5358 26.6099C59.0378 26.6099 58.6505 26.2113 58.6505 25.6989C58.6505 24.7309 59.8677 24.9018 60.1997 25.9266ZM64.4602 26.0405C64.6262 26.3252 64.5708 26.6099 64.2389 26.6099C63.9622 26.6099 63.5196 26.3252 63.3536 26.0405C63.1876 25.6989 63.2429 25.4711 63.5749 25.4711C63.8515 25.4711 64.2942 25.6989 64.4602 26.0405ZM59.5911 29.0581C59.3698 29.7983 58.3738 29.2859 58.4291 28.4318C58.4845 28.0902 58.2078 27.7486 57.7652 27.7486C56.9352 27.7486 56.7692 27.0654 57.3779 26.3821C57.8205 25.9266 59.8124 28.318 59.5911 29.0581ZM62.9663 27.1223C63.1322 27.5778 62.9109 27.8055 62.4683 27.6347C62.081 27.5209 61.6383 27.0654 61.5277 26.6668C61.3617 26.2113 61.583 25.9836 62.0256 26.1544C62.4129 26.2682 62.8556 26.7237 62.9663 27.1223ZM47.9163 27.4639C47.7503 27.9763 47.9163 28.318 48.4143 28.318C48.857 28.318 49.2443 28.0333 49.2443 27.7486C49.2443 26.7237 50.8489 26.4391 51.7341 27.35C52.7854 28.4888 52.7854 29.4567 51.7341 29.4567C51.2915 29.4567 50.9042 29.172 50.9042 28.8873C50.9042 28.5457 50.5169 28.5457 49.9082 28.9443C49.0783 29.4567 48.5803 29.3998 47.4184 28.6026C45.8691 27.5778 45.8691 26.6099 47.4184 26.6099C47.9163 26.6099 48.1377 26.9515 47.9163 27.4639ZM56.8799 28.261C57.0459 28.7165 56.8246 28.9443 56.3819 28.7735C55.9946 28.6596 55.552 28.2041 55.4413 27.8055C55.2753 27.35 55.4966 27.1223 55.9393 27.2931C56.3266 27.407 56.7692 27.8625 56.8799 28.261ZM61.3063 27.8055C61.1957 28.1472 60.8637 28.3749 60.587 28.3749C60.3104 28.3749 59.9784 28.1472 59.8677 27.8055C59.7571 27.4639 60.0891 27.1792 60.587 27.1792C61.085 27.1792 61.417 27.4639 61.3063 27.8055ZM65.0135 29.4567C66.1201 31.6772 66.8394 38.5666 65.8988 38.5666C65.5668 38.5666 65.2901 37.5417 65.2901 36.0044C65.2901 34.581 65.0688 33.4423 64.7922 33.4423C64.5708 33.4423 64.4602 34.0686 64.6262 34.8657C64.7922 35.8906 64.6262 36.2891 63.9622 36.2891C63.4089 36.2891 63.0216 35.7767 63.0216 34.9796L62.9109 33.727L62.6896 34.9796C62.5789 35.7197 62.081 36.2891 61.6936 36.2891C61.1957 36.2891 61.0297 35.9475 61.251 35.3781C61.583 34.4671 60.9744 34.4671 56.1606 35.492C55.2753 35.7197 53.5601 36.0044 52.4534 36.1183C51.1255 36.2891 50.3509 36.6877 50.3509 37.2001C50.3509 37.6556 49.8529 37.9972 49.2996 37.9972C48.525 37.9972 48.3037 38.2819 48.525 39.136C48.691 39.7623 48.525 40.2747 48.193 40.2747C47.861 40.2747 47.5844 39.6484 47.5844 38.9082C47.5844 38.1111 47.3077 37.314 47.0311 37.1432C46.2564 36.6307 47.3077 35.3212 49.2443 34.2963C50.4062 33.67 50.9042 33.67 51.4022 34.1825C51.9555 34.6949 52.0108 34.638 51.7341 33.8408C51.5128 33.2715 51.6235 32.8729 51.9555 32.8729C52.2875 32.8729 52.5641 33.1007 52.5641 33.4423C52.5641 33.727 52.7301 34.0116 53.0068 34.0116C53.2281 34.0116 53.3941 33.3853 53.3941 32.5882C53.3941 30.7662 52.8408 30.8232 50.5169 32.6452C49.5209 33.4423 48.691 33.8978 48.691 33.67C48.691 33.4423 48.3037 33.727 47.861 34.3533C47.4184 34.9226 47.0311 35.2073 47.0311 34.9226C47.0311 34.0686 48.8016 32.3035 49.6316 32.3035C50.4615 32.3035 50.5722 31.3926 49.7976 30.8801C49.1336 30.4816 49.5763 29.4567 50.4615 29.4567C50.7382 29.4567 50.9042 29.8553 50.6829 30.3108C50.2402 31.6203 51.2362 31.3356 52.8961 29.7414C54.6113 28.0902 55.3306 27.9194 55.3306 29.172C55.3306 29.7983 55.7179 29.9691 56.7139 29.6844C57.5992 29.4567 58.0972 29.5706 58.0972 30.0261C58.0972 30.4246 57.7098 30.5954 57.2672 30.3677C56.7692 30.1969 56.4372 30.3677 56.4372 30.8801C56.4372 31.3356 56.2159 31.7342 55.8839 31.7342C55.6073 31.7342 55.3306 31.3926 55.3306 30.9371C55.3306 30.4816 54.9433 30.0261 54.5007 29.7983C53.2834 29.3428 53.5047 30.6524 54.9987 32.5882C56.1053 34.0116 56.3266 34.1255 56.2713 33.1576C56.2159 32.5313 56.4372 32.0758 56.8799 32.1327C57.2119 32.2466 57.5439 32.0189 57.5439 31.6772C57.5439 31.3356 57.9312 31.1648 58.3738 31.3926C58.8718 31.5634 59.2038 31.3926 59.2038 30.8801C59.2038 29.7414 60.1444 29.7983 60.8637 30.994C61.417 31.905 61.417 31.848 61.1403 30.7662C60.6424 28.8873 61.8043 28.6596 62.7449 30.4246C63.1876 31.2787 63.5749 31.7911 63.6302 31.5634C63.6302 31.2787 63.3536 30.5385 63.0216 29.9122C62.5236 29.0012 62.5789 28.6026 63.1322 28.261C64.1835 27.5778 64.0175 27.5209 65.0135 29.4567ZM48.3037 30.4816C49.1889 31.5064 49.0783 32.3035 47.9717 32.3035C47.695 32.3035 47.5844 31.905 47.7503 31.5064C47.9717 30.9371 47.8057 30.7662 47.2524 30.994C46.8097 31.1648 46.4777 30.9371 46.4777 30.3677C46.4777 29.172 47.197 29.229 48.3037 30.4816ZM45.9244 31.7342C45.9244 32.0189 45.7031 32.3035 45.3711 32.3035C45.0945 32.3035 44.8178 32.0189 44.8178 31.7342C44.8178 31.3926 45.0945 31.1648 45.3711 31.1648C45.7031 31.1648 45.9244 31.3926 45.9244 31.7342ZM47.0311 32.8729C47.0311 33.1576 46.7544 33.4423 46.4224 33.4423C46.1458 33.4423 46.0351 33.1576 46.2011 32.8729C46.3671 32.5313 46.6437 32.3035 46.8097 32.3035C46.9204 32.3035 47.0311 32.5313 47.0311 32.8729ZM38.9528 34.581C39.4508 34.1825 40.0041 33.9547 40.1701 34.1255C40.2807 34.2963 39.5061 35.1504 38.4548 36.0044C36.4076 37.5987 34.9137 37.5417 36.8502 35.9475C37.8462 35.0934 37.8462 35.0934 36.6842 35.7197C34.9137 36.5738 34.7477 37.1432 35.9649 38.2819C37.1822 39.4206 37.4035 40.2747 36.5182 40.2747C36.2416 40.2747 35.9649 39.99 35.9649 39.6484C35.9649 39.3068 35.4116 38.5666 34.803 38.0542L33.6411 37.0862L35.4116 35.492C36.7396 34.3533 37.3482 34.1255 37.6802 34.638C38.0122 35.2073 38.2888 35.2073 38.9528 34.581ZM42.4939 34.4671C42.4386 34.7518 41.2767 35.8906 40.0041 37.0862C38.5655 38.3958 37.5695 38.9651 37.3482 38.5666C36.9056 37.8264 36.8502 37.8833 39.6168 35.7197C41.7747 34.0686 42.8813 33.5562 42.4939 34.4671ZM45.2051 36.403C46.6991 38.1111 47.197 41.6412 46.2564 43.9186C45.1498 46.5947 43.4899 47.7904 40.3914 48.132C37.9015 48.3597 37.6249 48.2458 37.1269 47.0502C36.8502 46.31 35.9096 45.0574 35.0797 44.2603C34.0284 43.3493 33.8071 43.2354 34.3604 43.9756C35.7436 45.7406 36.0756 46.5377 35.467 46.5377C34.7477 46.5377 33.1431 43.4062 33.5857 42.9507C33.7517 42.723 33.5857 42.2105 33.1984 41.6981C32.7558 41.1287 32.7004 40.8441 33.1431 40.8441C33.4751 40.8441 34.637 42.1536 35.7436 43.6909C36.8502 45.2851 37.9015 46.4808 38.0122 46.31C38.1782 46.1392 37.1269 44.6019 35.7436 42.8368C34.3604 41.0718 33.1984 39.3637 33.1984 39.079C33.1984 37.9972 34.305 38.6235 35.0797 40.1608C35.5223 41.0149 36.3523 42.2105 37.0162 42.7799C38.0675 43.7478 38.1782 43.7478 38.1782 42.9507C38.1782 42.3814 37.9568 41.9828 37.6249 41.9828C37.3482 41.9828 37.0716 41.6412 37.0716 41.2426C37.0716 40.4455 42.6046 35.2073 43.4899 35.1504C43.8219 35.1504 44.5965 35.7197 45.2051 36.403ZM58.3738 36.2891C58.5398 36.5738 58.4291 36.8585 58.1525 36.8585C57.8205 36.8585 57.5439 36.5738 57.5439 36.2891C57.5439 35.9475 57.6545 35.7197 57.7652 35.7197C57.9312 35.7197 58.2078 35.9475 58.3738 36.2891ZM60.3104 36.2891C60.3104 36.5738 60.0891 36.8585 59.7571 36.8585C59.4804 36.8585 59.2038 36.5738 59.2038 36.2891C59.2038 35.9475 59.4804 35.7197 59.7571 35.7197C60.0891 35.7197 60.3104 35.9475 60.3104 36.2891ZM64.7368 37.7125C64.7368 38.168 64.5155 38.5666 64.1835 38.5666C63.9069 38.5666 63.6302 38.168 63.6302 37.7125C63.6302 37.257 63.9069 36.8585 64.1835 36.8585C64.5155 36.8585 64.7368 37.257 64.7368 37.7125ZM58.6505 37.9972C58.6505 38.2819 58.4291 38.5666 58.0972 38.5666C57.8205 38.5666 57.5439 38.2819 57.5439 37.9972C57.5439 37.6556 57.8205 37.4279 58.0972 37.4279C58.4291 37.4279 58.6505 37.6556 58.6505 37.9972ZM60.8637 37.9972C60.8637 38.2819 60.4764 38.5666 60.0337 38.5666C59.5911 38.5666 59.2038 38.2819 59.2038 37.9972C59.2038 37.6556 59.5911 37.4279 60.0337 37.4279C60.4764 37.4279 60.8637 37.6556 60.8637 37.9972ZM62.5236 37.9972C62.5236 38.2819 62.3023 38.5666 61.9703 38.5666C61.6936 38.5666 61.417 38.2819 61.417 37.9972C61.417 37.6556 61.6936 37.4279 61.9703 37.4279C62.3023 37.4279 62.5236 37.6556 62.5236 37.9972ZM51.8448 39.8192C51.6788 40.2747 51.5128 40.1039 51.5128 39.4776C51.4575 38.8513 51.6235 38.5097 51.7895 38.7374C51.9555 38.9082 52.0108 39.4206 51.8448 39.8192ZM60.5317 40.3316C60.3657 40.6163 59.9784 40.7302 59.7017 40.5024C59.4251 40.3316 59.3144 39.9331 59.5358 39.6484C59.7017 39.3637 60.0891 39.2498 60.3657 39.4776C60.6424 39.6484 60.753 40.0469 60.5317 40.3316ZM62.9663 39.8192C62.6343 40.8441 61.417 41.0149 61.417 40.0469C61.417 39.5345 61.8043 39.136 62.3023 39.136C62.8003 39.136 63.0769 39.4206 62.9663 39.8192ZM50.9042 39.9331C50.9042 40.5594 49.8529 40.7871 49.5209 40.2747C49.3549 39.99 49.5763 39.7053 50.0189 39.7053C50.5169 39.7053 50.9042 39.8192 50.9042 39.9331ZM56.9906 39.9331C56.9906 40.0469 56.4926 40.2747 55.8839 40.4455C55.2753 40.6163 54.7773 40.5024 54.7773 40.2178C54.7773 39.9331 55.2753 39.7053 55.8839 39.7053C56.4926 39.7053 56.9906 39.8192 56.9906 39.9331ZM58.6505 40.2747C58.6505 40.5594 58.5398 40.8441 58.4291 40.8441C58.2632 40.8441 57.9865 40.5594 57.8205 40.2747C57.6545 39.9331 57.7652 39.7053 58.0418 39.7053C58.3738 39.7053 58.6505 39.9331 58.6505 40.2747ZM50.9042 41.9828C50.9042 42.723 49.2443 42.723 48.1377 41.9828C47.529 41.5842 47.7503 41.4134 49.1336 41.4134C50.0742 41.4134 50.9042 41.6412 50.9042 41.9828ZM53.6707 41.9259C53.6707 42.666 52.2321 43.7478 51.8448 43.2923C51.0702 42.5522 51.4575 41.6412 52.5641 41.5842C53.1727 41.5273 53.6707 41.6981 53.6707 41.9259ZM55.3306 41.812C55.3306 42.0967 55.054 42.666 54.7773 43.1215C54.3347 43.8048 54.224 43.7478 54.224 42.666C54.224 41.9828 54.5007 41.4134 54.7773 41.4134C55.1093 41.4134 55.3306 41.5842 55.3306 41.812ZM56.4926 43.2354C56.2713 44.2603 55.9393 45.0574 55.7179 44.9435C55.22 44.7727 55.22 44.6019 55.6626 42.8368C56.1606 40.7302 56.9352 41.1287 56.4926 43.2354ZM58.0418 44.9435C57.0459 46.7655 56.7139 45.0004 57.5992 42.7799C58.2632 41.2426 58.3185 41.2426 58.4845 42.3814C58.6505 43.0646 58.4291 44.2033 58.0418 44.9435ZM60.8637 42.6091C60.8637 42.8938 60.4764 44.0895 60.0337 45.2282C59.4804 46.6516 58.9825 47.1071 58.5951 46.7086C58.2632 46.3669 58.3185 45.6268 58.9271 44.488C59.3698 43.577 59.7571 42.4952 59.7571 42.0967C59.7571 41.6981 60.0337 41.5273 60.3104 41.6981C60.6424 41.8689 60.8637 42.3244 60.8637 42.6091ZM62.9109 42.2675C63.3536 43.577 61.1957 49.043 60.0891 49.2707C59.2591 49.4415 59.3144 49.1568 60.3104 46.5377C60.919 44.9435 61.417 43.1215 61.417 42.5522C61.417 41.1857 62.4129 41.0149 62.9109 42.2675ZM49.1889 44.9435C48.9123 45.9684 48.691 46.8794 48.691 46.9363C48.691 47.0502 48.4143 47.1071 48.027 47.1071C47.529 47.1071 47.529 46.9363 48.027 46.4239C48.525 45.9114 48.4696 45.5129 47.695 44.6019C46.8097 43.577 46.8097 43.5201 47.7503 43.8617C48.2483 44.0895 48.691 43.9756 48.691 43.6909C48.691 43.3493 48.9123 43.1215 49.1889 43.1215C49.5209 43.1215 49.5209 43.8048 49.1889 44.9435ZM52.9514 45.7976C52.7854 46.8224 51.5128 49.3846 51.4575 48.7583C51.4575 48.1889 52.6748 44.8296 52.8961 44.8296C53.0068 44.8296 53.0621 45.2851 52.9514 45.7976ZM51.4575 45.9684C51.4575 46.2531 51.2362 46.5377 50.9595 46.5377C50.6275 46.5377 50.2402 46.2531 50.0742 45.9684C49.9082 45.6268 50.1296 45.399 50.5722 45.399C51.0702 45.399 51.4575 45.6268 51.4575 45.9684ZM55.3306 46.5377C55.3306 46.8224 55.22 47.1071 55.1093 47.1071C54.9433 47.1071 54.6667 46.8224 54.5007 46.5377C54.3347 46.1961 54.4453 45.9684 54.722 45.9684C55.054 45.9684 55.3306 46.1961 55.3306 46.5377ZM46.4777 47.1071C46.4777 47.3918 46.2011 47.6765 45.8691 47.6765C45.5925 47.6765 45.4818 47.3918 45.6478 47.1071C45.8138 46.7655 46.0904 46.5377 46.2564 46.5377C46.3671 46.5377 46.4777 46.7655 46.4777 47.1071ZM55.552 49.6693C55.054 51.2066 54.9433 51.2635 54.1687 50.7511C53.6707 50.4664 53.7814 50.1248 54.5007 49.6123C55.386 48.9291 55.4413 48.8152 54.6113 48.4736C54.058 48.3028 53.6707 47.9042 53.6707 47.6195C53.6707 47.3349 54.1687 47.3918 54.7773 47.7904C55.552 48.3028 55.7733 48.8722 55.552 49.6693ZM58.8165 47.4487C59.3144 48.0181 57.9312 49.9539 56.9906 49.9539C56.2713 49.897 56.2713 49.8401 57.0459 49.2138C57.5439 48.8152 57.8205 48.1889 57.7098 47.7904C57.4332 47.1071 58.2078 46.8224 58.8165 47.4487ZM46.2011 49.3276C46.0351 49.6693 45.5925 49.9539 45.2605 49.9539C44.9285 49.9539 44.9285 49.6123 45.3711 49.0999C46.1458 48.132 46.8097 48.3597 46.2011 49.3276ZM50.3509 49.3846C50.3509 49.6693 50.7382 49.9539 51.1808 49.9539C51.6235 49.9539 52.0108 50.1817 52.0108 50.5233C52.0108 51.2635 51.4022 51.2066 50.2402 50.2956C49.1336 49.4415 48.9676 48.8152 49.7976 48.8152C50.1296 48.8152 50.3509 49.043 50.3509 49.3846ZM43.7112 49.8401C43.7112 50.1248 42.9919 50.3525 42.0513 50.3525C41.166 50.3525 40.3914 50.1248 40.3914 49.8401C40.3914 49.6123 41.166 49.3846 42.0513 49.3846C42.9919 49.3846 43.7112 49.6123 43.7112 49.8401ZM47.9717 51.4343C47.8057 52.63 48.027 53.7687 48.4696 54.2242C49.3549 55.1352 49.4656 56.217 48.691 56.217C48.4143 56.217 48.1377 55.9323 48.1377 55.5907C48.1377 55.1921 47.695 54.5658 47.197 54.1673C46.3671 53.541 46.3118 53.3132 46.9757 52.8577C47.363 52.573 47.529 52.0606 47.3077 51.719C47.0864 51.3204 47.0864 50.6941 47.2524 50.2386C47.8057 48.7013 48.193 49.3276 47.9717 51.4343ZM62.5236 49.897C62.5236 50.5803 61.417 51.3204 61.0297 50.9219C60.6424 50.5233 61.3617 49.3846 62.0256 49.3846C62.3023 49.3846 62.5236 49.6123 62.5236 49.897ZM60.0337 50.5233C60.1997 50.808 59.9784 51.0927 59.5358 51.0927C59.0378 51.0927 58.6505 50.808 58.6505 50.5233C58.6505 50.1817 58.8718 49.9539 59.1484 49.9539C59.4804 49.9539 59.8677 50.1817 60.0337 50.5233ZM46.1458 51.3774C45.7584 52.3453 44.4858 52.5161 43.9879 51.719C43.8219 51.4343 44.2645 51.0357 44.9285 50.9219C45.6478 50.808 46.2564 50.6372 46.3118 50.5803C46.3671 50.5803 46.3118 50.9219 46.1458 51.3774ZM49.9082 52.3453C49.0783 53.1993 48.4696 52.573 48.9123 51.3204C49.1889 50.5803 49.4103 50.4664 49.9082 50.9788C50.4062 51.4912 50.4062 51.8329 49.9082 52.3453ZM57.5439 51.0357C57.5439 51.4912 55.1646 53.3702 54.5007 53.3702C54.3347 53.3702 54.224 53.0855 54.224 52.8008C54.224 52.4592 54.6113 52.2314 55.054 52.2314C55.4966 52.2314 55.8839 51.8329 55.8839 51.3774C55.8839 50.9219 56.2713 50.5233 56.7139 50.5233C57.1565 50.5233 57.5439 50.7511 57.5439 51.0357ZM64.1835 50.9788C64.1835 51.719 63.5196 52.2314 62.9663 51.8898C62.4129 51.5482 62.9109 50.5233 63.6856 50.5233C63.9622 50.5233 64.1835 50.7511 64.1835 50.9788ZM53.6707 51.6621C53.6707 51.9467 53.4494 52.2314 53.1174 52.2314C52.8408 52.2314 52.5641 51.9467 52.5641 51.6621C52.5641 51.3204 52.8408 51.0927 53.1174 51.0927C53.4494 51.0927 53.6707 51.3204 53.6707 51.6621ZM43.4346 52.2314C43.6006 52.5161 43.5452 52.8008 43.2132 52.8008C42.9366 52.8008 42.4939 52.5161 42.328 52.2314C42.162 51.8898 42.2173 51.6621 42.5493 51.6621C42.8259 51.6621 43.2686 51.8898 43.4346 52.2314ZM58.3185 52.5161C58.0972 52.9716 57.7652 53.1993 57.4885 53.0285C57.2119 52.8577 56.9906 53.0855 56.9906 53.541C56.9906 54.5658 55.1093 56.3309 54.6113 55.8184C54.39 55.5907 54.9987 54.5658 55.9946 53.541C57.8758 51.5482 58.8165 51.0927 58.3185 52.5161ZM61.417 52.2314C61.417 52.5161 61.8043 52.8008 62.3023 52.8008C63.5749 52.8008 66.3967 54.6228 66.3967 55.4768C66.3967 56.6156 65.6774 56.3878 63.1876 54.5089C61.915 53.541 60.6424 52.8008 60.3104 52.8008C60.0337 52.8008 59.7571 52.5161 59.7571 52.2314C59.7571 51.8898 60.1444 51.6621 60.587 51.6621C61.0297 51.6621 61.417 51.8898 61.417 52.2314ZM66.0094 52.5161C65.6774 53.484 64.6262 53.3702 64.2942 52.3453C64.1835 51.9467 64.5708 51.6621 65.2348 51.6621C66.0094 51.6621 66.2861 51.9467 66.0094 52.5161ZM52.0108 52.9716C52.0108 53.3702 51.7341 53.9965 51.3468 54.395C50.9042 54.8505 50.9042 55.0783 51.2915 55.0783C51.6235 55.0783 52.1768 54.6797 52.5641 54.2242C52.9514 53.7687 53.4494 53.541 53.726 53.7118C54.6113 54.2242 54.2794 55.0213 52.7854 55.8184L51.3468 56.6156L52.7854 57.5265C54.2794 58.5514 54.556 59.4055 53.6707 60.7719C53.2281 61.4552 53.0621 61.4552 52.1215 60.6011C51.5682 60.0887 50.9595 59.804 50.7382 59.9748C50.5722 60.1456 50.1296 60.1456 49.7423 59.9179C49.2996 59.5763 49.3549 59.3485 50.0189 58.95C50.6829 58.5514 51.4022 58.6653 52.4534 59.3485C53.6154 60.0887 53.5047 59.861 51.9001 58.2667C49.9636 56.2739 49.7976 55.7615 50.6829 52.9147C50.9595 52.0037 52.0108 52.0037 52.0108 52.9716ZM68.0567 52.7439C68.0567 53.4271 66.9501 54.1673 66.5627 53.7687C66.1754 53.3702 66.8947 52.2314 67.5587 52.2314C67.8353 52.2314 68.0567 52.4592 68.0567 52.7439ZM59.4804 53.3702C59.6464 53.6548 59.5358 53.9395 59.2591 53.9395C58.9271 53.9395 58.6505 53.6548 58.6505 53.3702C58.6505 53.0285 58.7611 52.8008 58.8718 52.8008C59.0378 52.8008 59.3144 53.0285 59.4804 53.3702ZM69.1633 53.6548C69.1633 54.1103 68.942 54.5089 68.61 54.5089C68.3333 54.5089 68.2227 54.1103 68.3886 53.6548C68.61 53.1993 68.8313 52.8008 68.942 52.8008C69.0526 52.8008 69.1633 53.1993 69.1633 53.6548ZM40.9447 54.1673C40.9447 54.6228 40.6127 55.0783 40.2254 55.2491C39.7828 55.4199 39.5061 55.0783 39.5061 54.452C39.5061 53.8257 39.8381 53.3702 40.2254 53.3702C40.6127 53.3702 40.9447 53.7118 40.9447 54.1673ZM43.1579 54.5658C43.1579 54.8505 42.7706 55.0783 42.328 55.0783C41.498 55.0783 41.2213 54.395 41.83 53.7687C42.2726 53.3132 43.1579 53.8257 43.1579 54.5658ZM45.3711 53.9395C45.3711 54.2242 45.1498 54.5089 44.8178 54.5089C44.5412 54.5089 44.2645 54.2242 44.2645 53.9395C44.2645 53.5979 44.5412 53.3702 44.8178 53.3702C45.1498 53.3702 45.3711 53.5979 45.3711 53.9395ZM61.1403 54.5089C61.3063 54.7936 61.1957 55.0783 60.919 55.0783C60.587 55.0783 60.3104 54.7936 60.3104 54.5089C60.3104 54.1673 60.421 53.9395 60.5317 53.9395C60.6977 53.9395 60.9744 54.1673 61.1403 54.5089ZM58.6505 54.9644C58.6505 55.9893 57.1012 57.5265 56.4926 57.128C55.9946 56.7864 56.0499 56.3878 56.7692 55.5907C57.7652 54.452 58.6505 54.1673 58.6505 54.9644ZM45.0945 56.7864C44.7625 57.2988 44.5965 57.2988 44.2092 56.7294C43.6559 55.7615 44.2092 54.7936 44.9285 55.5338C45.2605 55.8754 45.3158 56.4447 45.0945 56.7864ZM47.3077 55.6476C47.4737 55.9323 47.4184 56.217 47.0864 56.217C46.8097 56.217 46.3671 55.9323 46.2011 55.6476C46.0351 55.306 46.0904 55.0783 46.4224 55.0783C46.6991 55.0783 47.1417 55.306 47.3077 55.6476ZM63.4642 56.5586C62.9663 57.071 61.915 56.217 62.3023 55.5338C62.5236 55.1921 62.8556 55.1921 63.2429 55.5907C63.5749 55.9323 63.6856 56.3309 63.4642 56.5586ZM43.1579 56.4447C43.1579 57.6404 41.996 58.2098 41.498 57.2988C41.2213 56.9002 41.166 56.3309 41.2767 56.1031C41.7747 55.306 43.1579 55.5907 43.1579 56.4447ZM60.5317 56.1601C60.9744 56.8433 58.8165 58.6653 58.0972 58.2098C57.6545 57.9251 57.7652 57.4696 58.4291 56.7294C59.4804 55.5338 60.0891 55.3629 60.5317 56.1601ZM37.6249 56.4447C37.6249 56.6156 37.4035 56.9002 37.0716 57.071C36.7949 57.2419 36.5182 57.128 36.5182 56.8433C36.5182 56.5017 36.7949 56.217 37.0716 56.217C37.4035 56.217 37.6249 56.3309 37.6249 56.4447ZM39.8934 58.1528C39.1741 60.0318 38.1782 60.0887 38.2888 58.2098C38.3995 57.2988 38.6761 56.8433 39.1188 57.0141C39.5061 57.1849 39.8381 57.0141 39.8381 56.6725C39.8381 56.3309 39.9487 56.1601 40.1147 56.3309C40.2807 56.5017 40.1701 57.2988 39.8934 58.1528ZM54.224 56.7864C54.224 57.071 54.0027 57.3557 53.6707 57.3557C53.3941 57.3557 53.1174 57.071 53.1174 56.7864C53.1174 56.4447 53.3941 56.217 53.6707 56.217C54.0027 56.217 54.224 56.4447 54.224 56.7864ZM62.3023 57.4127C62.8556 58.3237 61.085 59.861 59.9784 59.4055C59.0931 59.0638 59.0931 58.95 60.0337 57.9251C61.1403 56.6156 61.749 56.5017 62.3023 57.4127ZM65.8434 57.1849C65.8434 57.4696 65.0688 58.5514 64.1835 59.6332C62.9109 61.2274 62.4683 61.4552 61.915 60.9428C61.3617 60.3734 61.417 59.9748 62.247 59.0638C62.8003 58.4375 63.4642 58.0959 63.6856 58.2667C63.9622 58.4375 64.1835 58.1528 64.1835 57.6974C64.1835 57.1849 64.5708 56.7864 65.0135 56.7864C65.4561 56.7864 65.8434 56.9572 65.8434 57.1849ZM47.0311 58.2098C47.0311 58.6653 46.8097 59.0638 46.5331 59.0638C45.8138 59.0638 45.3158 58.1528 45.7584 57.6974C46.3671 57.071 47.0311 57.3557 47.0311 58.2098ZM49.2443 57.9251C49.2443 58.2098 49.023 58.4945 48.7463 58.4945C48.4143 58.4945 48.027 58.2098 47.861 57.9251C47.695 57.5835 47.9163 57.3557 48.359 57.3557C48.857 57.3557 49.2443 57.5835 49.2443 57.9251ZM56.7139 58.2667C57.4885 58.7792 57.9312 59.4055 57.7652 59.6901C57.3225 60.4873 56.4372 60.2595 56.4372 59.3485C56.4372 58.893 56.1606 58.5514 55.8286 58.6083C55.4966 58.7222 55.054 58.4375 54.9433 58.039C54.6113 57.128 55.1093 57.1849 56.7139 58.2667ZM44.3752 59.9179C43.7112 61.1705 42.8813 60.0318 43.3792 58.6653C43.6559 57.982 43.9325 57.9251 44.3199 58.3237C44.7072 58.7222 44.7625 59.2916 44.3752 59.9179ZM67.3927 58.8361C67.1714 60.0318 64.3495 62.2523 63.7962 61.7399C63.4089 61.2844 66.2861 57.9251 67.116 57.9251C67.3374 57.9251 67.5034 58.3237 67.3927 58.8361ZM45.6478 60.2026C45.2051 60.9997 46.6437 60.9428 47.4184 60.1456C47.7503 59.804 48.3037 59.6901 48.6356 59.861C49.6316 60.4873 49.3549 61.3413 48.193 61.3413C47.5844 61.3413 46.9204 61.5691 46.7544 61.9107C46.0904 62.9925 44.9838 62.48 44.9838 61.0566C44.9838 60.2595 45.2051 59.6332 45.4818 59.6332C45.7584 59.6332 45.8138 59.861 45.6478 60.2026ZM56.4372 60.8289C56.4372 61.1136 56.0499 61.3413 55.6073 61.3413C54.7773 61.3413 54.5007 60.6581 55.1093 60.0318C55.552 59.5763 56.4372 60.0887 56.4372 60.8289ZM59.7571 60.8289C59.7571 61.1136 59.3698 61.3413 58.9271 61.3413C58.0972 61.3413 57.8205 60.6581 58.4291 60.0318C58.8718 59.5763 59.7571 60.0887 59.7571 60.8289ZM37.0716 60.7719C37.0716 61.0566 36.8502 61.3413 36.5182 61.3413C36.2416 61.3413 35.9649 61.0566 35.9649 60.7719C35.9649 60.4303 36.2416 60.2026 36.5182 60.2026C36.8502 60.2026 37.0716 60.4303 37.0716 60.7719ZM38.7315 60.7719C38.7315 61.0566 38.4548 61.3413 38.1228 61.3413C37.8462 61.3413 37.7355 61.0566 37.9015 60.7719C38.0675 60.4303 38.3442 60.2026 38.5101 60.2026C38.6208 60.2026 38.7315 60.4303 38.7315 60.7719ZM50.8489 62.537C49.3549 63.9035 48.525 63.9035 48.8016 62.5939C48.9123 62.0815 49.4103 61.6829 49.9636 61.6829C50.4615 61.7399 50.9042 61.5691 50.9042 61.2274C50.9042 60.9428 51.1808 60.8858 51.4575 61.0566C51.8448 61.2844 51.5682 61.8537 50.8489 62.537ZM59.4251 63.0494C59.9231 63.0494 60.3104 63.2772 60.3104 63.6188C60.3104 63.9035 59.9231 64.1881 59.4804 64.1881C58.3738 64.1881 56.4372 62.4231 56.8246 61.7399C56.9906 61.3982 57.4332 61.5691 57.8205 62.0815C58.2078 62.6509 58.9271 63.0494 59.4251 63.0494ZM61.9703 61.8537C61.9703 62.6509 60.9744 63.1633 60.3104 62.7647C59.9784 62.537 59.8677 62.1384 60.0337 61.8537C60.4764 61.1705 61.9703 61.1705 61.9703 61.8537ZM37.0716 62.48C37.0716 62.7647 36.8502 63.0494 36.5182 63.0494C36.2416 63.0494 35.9649 62.7647 35.9649 62.48C35.9649 62.1384 36.2416 61.9107 36.5182 61.9107C36.8502 61.9107 37.0716 62.1384 37.0716 62.48ZM38.7315 63.0494C38.7315 63.3341 38.5101 63.6188 38.1782 63.6188C37.9015 63.6188 37.6249 63.3341 37.6249 63.0494C37.6249 62.7078 37.9015 62.48 38.1782 62.48C38.5101 62.48 38.7315 62.7078 38.7315 63.0494ZM47.695 64.302C47.197 64.8145 46.8651 64.8145 46.3671 64.302C45.8138 63.7327 45.8138 63.448 46.4777 63.0494C47.5844 62.3662 48.5803 63.391 47.695 64.302ZM53.3941 63.0494C53.5601 63.3341 53.5047 63.6188 53.1727 63.6188C52.8961 63.6188 52.4534 63.3341 52.2875 63.0494C52.1215 62.7078 52.1768 62.48 52.5088 62.48C52.7854 62.48 53.2281 62.7078 53.3941 63.0494ZM63.0769 62.9925C63.0769 63.8465 61.417 65.3269 60.4764 65.3269C59.7571 65.3269 59.8677 64.9853 60.919 63.9604C62.3576 62.48 63.0769 62.1954 63.0769 62.9925ZM51.5682 64.8714C51.0702 65.3838 50.7382 65.3838 50.2402 64.8714C49.6869 64.302 49.6869 64.0173 50.3509 63.6188C51.4575 62.9355 52.4534 63.9604 51.5682 64.8714ZM37.0716 65.3838C37.0716 65.6685 36.8502 65.8963 36.5182 65.8963C36.2416 65.8963 35.9649 65.4977 35.9649 64.9853C35.9649 64.5298 36.2416 64.302 36.5182 64.4728C36.8502 64.6436 37.0716 65.0422 37.0716 65.3838ZM38.7315 64.9853C38.7315 65.4408 38.5101 66.0101 38.1782 66.1809C37.9015 66.3517 37.6249 66.0101 37.6249 65.3838C37.6249 64.7006 37.9015 64.1881 38.1782 64.1881C38.5101 64.1881 38.7315 64.5298 38.7315 64.9853ZM49.7976 65.3269C49.7976 65.9532 48.1377 66.5226 47.4737 66.124C47.0864 65.8393 47.2524 65.4408 47.861 64.9853C48.857 64.2451 49.7976 64.4159 49.7976 65.3269ZM55.054 64.7575C55.22 65.0422 54.9987 65.3269 54.556 65.3269C54.058 65.3269 53.6707 65.0422 53.6707 64.7575C53.6707 64.4159 53.892 64.1881 54.1687 64.1881C54.5007 64.1881 54.888 64.4159 55.054 64.7575ZM40.3914 65.6116C40.3914 66.0671 40.1701 66.4656 39.8381 66.4656C39.5614 66.4656 39.2848 66.0671 39.2848 65.6116C39.2848 65.1561 39.5614 64.7575 39.8381 64.7575C40.1701 64.7575 40.3914 65.1561 40.3914 65.6116ZM53.1174 65.8393C53.1174 66.6364 52.1215 67.1489 51.4575 66.7503C51.1255 66.5226 51.0149 66.124 51.1808 65.8393C51.6235 65.1561 53.1174 65.1561 53.1174 65.8393ZM56.4372 66.6934C56.4372 67.0919 56.9352 67.6044 57.5439 67.7752C58.1525 67.946 58.6505 68.3445 58.6505 68.6862C58.6505 69.711 57.3225 69.3694 56.2159 68.0599C55.2753 66.9781 55.1646 66.9781 54.6667 67.7752C54.058 68.9708 52.5641 69.0278 52.5641 67.889C52.5641 67.4335 53.0621 67.035 53.6154 67.035C54.224 67.035 54.888 66.7503 55.054 66.4656C55.552 65.6116 56.4372 65.7824 56.4372 66.6934ZM36.5182 67.946C36.5182 68.4015 36.2969 68.6292 35.9649 68.4584C35.6883 68.2876 35.4116 67.889 35.4116 67.5474C35.4116 67.2627 35.6883 67.035 35.9649 67.035C36.2969 67.035 36.5182 67.4335 36.5182 67.946ZM38.7315 67.889C38.7315 68.3445 38.3442 68.7431 37.9015 68.7431C37.4589 68.7431 37.0716 68.3445 37.0716 67.889C37.0716 67.4335 37.4589 67.035 37.9015 67.035C38.3442 67.035 38.7315 67.4335 38.7315 67.889ZM40.3914 67.889C40.3914 68.3445 40.1701 68.7431 39.8381 68.7431C39.5614 68.7431 39.2848 68.3445 39.2848 67.889C39.2848 67.4335 39.5614 67.035 39.8381 67.035C40.1701 67.035 40.3914 67.4335 40.3914 67.889ZM36.5182 70.4512C36.5182 71.0775 36.2969 71.5899 35.9649 71.5899C35.6883 71.5899 35.4116 71.0775 35.4116 70.4512C35.4116 69.8249 35.6883 69.3125 35.9649 69.3125C36.2969 69.3125 36.5182 69.8249 36.5182 70.4512ZM38.3442 70.7359C38.1782 71.1914 37.8462 71.5899 37.5695 71.5899C37.0162 71.5899 36.9056 70.2235 37.4035 69.711C38.0122 69.0847 38.7315 69.8818 38.3442 70.7359ZM36.5182 72.7287C36.5182 73.0134 36.1309 73.298 35.6883 73.298C35.2456 73.298 34.8583 73.0134 34.8583 72.7287C34.8583 72.387 35.2456 72.1593 35.6883 72.1593C36.1309 72.1593 36.5182 72.387 36.5182 72.7287ZM38.1782 72.7287C38.1782 73.0134 37.9568 73.298 37.6249 73.298C37.3482 73.298 37.0716 73.0134 37.0716 72.7287C37.0716 72.387 37.3482 72.1593 37.6249 72.1593C37.9568 72.1593 38.1782 72.387 38.1782 72.7287ZM40.3914 72.7287C40.3914 73.0134 40.1701 73.298 39.8381 73.298C39.5614 73.298 39.2848 73.0134 39.2848 72.7287C39.2848 72.387 39.5614 72.1593 39.8381 72.1593C40.1701 72.1593 40.3914 72.387 40.3914 72.7287ZM40.3914 75.0061C40.3914 75.6324 40.0041 76.1449 39.5614 76.1449C38.7315 76.1449 38.3995 74.9492 39.1188 74.266C39.7828 73.5258 40.3914 73.8674 40.3914 75.0061Z" fill="#FEF6CE"/>
<path d="M41.7746 37.4847C41.1659 38.4526 41.8299 38.6804 42.6045 37.7124C43.0472 37.2 43.0472 36.8584 42.7152 36.8584C42.3832 36.8584 41.9406 37.1431 41.7746 37.4847Z" fill="#FEF6CE"/>
<path d="M24.5114 14.1408C21.0809 17.3862 19.9743 18.6388 19.9189 19.4359C19.9189 19.7206 21.0809 18.6388 22.5748 17.1015C24.0134 15.5642 25.8946 13.7422 26.7799 13.059C27.6652 12.3757 28.2739 11.6355 28.0525 11.4647C27.8865 11.2939 26.3373 12.4896 24.5114 14.1408Z" fill="#FEF6CE"/>
<path d="M25.1755 17.2151C23.073 19.2079 21.4684 21.0299 21.6344 21.1438C21.8004 21.3146 23.6263 19.7773 25.6735 17.7276C27.7207 15.6209 29.3253 13.8559 29.1593 13.742C29.0487 13.6281 27.2781 15.1654 25.1755 17.2151Z" fill="#FEF6CE"/>
<path d="M37.0714 13.9699C37.0714 14.4824 43.6004 15.2795 44.2091 14.824C44.7624 14.4254 43.7664 14.1407 40.5019 13.7422C38.2334 13.5144 37.0714 13.5714 37.0714 13.9699Z" fill="#FEF6CE"/>
<path d="M65.8434 15.4503C65.8434 15.6781 67.3373 18.0125 69.1632 20.5746C73.811 27.1793 74.5303 29.1721 74.6409 36.0614C74.6963 39.2499 74.4749 42.9508 74.1983 44.3173C73.7003 46.5378 73.7557 46.7086 74.4749 45.7407C75.3049 44.4881 75.4156 43.634 75.3049 36.0045C75.2496 32.1328 75.3602 31.1079 75.8029 31.7342C76.6882 32.9299 75.9689 29.5706 75.0283 28.0333C74.6409 27.407 74.2536 26.6099 74.143 26.3252C73.7557 24.731 71.8191 21.4856 71.4318 21.7703C71.1551 21.9411 69.7719 20.4608 68.3886 18.5249C67.0053 16.5891 65.8434 15.2226 65.8434 15.4503Z" fill="#FEF6CE"/>
<path d="M26.3927 19.0943C24.6775 20.9162 23.2389 22.5674 23.2389 22.8521C23.2389 23.0798 24.6222 21.8842 26.3374 20.1191C28.0526 18.3541 29.6572 16.9307 29.9339 16.9307C30.2105 16.9307 30.4319 16.646 30.4319 16.3613C30.4319 15.2226 29.4912 15.8489 26.3927 19.0943Z" fill="#FEF6CE"/>
<path d="M45.0943 16.3613C44.9284 16.646 45.039 16.9307 45.3157 16.9307C45.6477 16.9307 45.9243 16.646 45.9243 16.3613C45.9243 16.0197 45.8136 15.7919 45.703 15.7919C45.537 15.7919 45.2603 16.0197 45.0943 16.3613Z" fill="#FEF6CE"/>
<path d="M40.3914 16.8741C41.7746 17.1019 43.2132 17.4435 43.6005 17.6712C43.9325 17.9559 44.2645 17.899 44.2645 17.6143C44.2645 16.7602 42.7706 16.3617 40.2254 16.4186L37.9015 16.5325L40.3914 16.8741Z" fill="#FEF6CE"/>
<path d="M38.7312 19.2084C39.5059 19.4362 40.7231 19.6639 41.4978 19.7208C42.6044 19.7778 42.715 19.6639 42.0511 19.2084C41.6084 18.9237 40.3358 18.696 39.2845 18.696C37.514 18.7529 37.4586 18.8099 38.7312 19.2084Z" fill="#FEF6CE"/>
<path d="M27.112 21.7699C25.7841 23.1933 24.8435 24.332 25.1201 24.332C25.3414 24.332 26.7247 23.1933 28.108 21.7699C29.4912 20.3465 30.3765 19.2077 30.0999 19.2077C29.7679 19.2077 28.4399 20.3465 27.112 21.7699Z" fill="#FEF6CE"/>
<path d="M37.1267 21.1436C37.2373 21.2575 38.4546 21.4852 39.8379 21.713C41.5531 21.9407 42.0511 21.8838 41.4978 21.4852C40.7785 20.9728 36.5734 20.6312 37.1267 21.1436Z" fill="#FEF6CE"/>
<path d="M27.9419 24.3892C27.1672 25.3571 26.6139 26.3251 26.7799 26.4389C27.1119 26.7806 29.8231 23.706 29.8784 23.0227C29.8784 22.2825 29.4358 22.6242 27.9419 24.3892Z" fill="#FEF6CE"/>
<path d="M38.1781 23.1938C38.1781 23.4785 38.9527 23.7632 39.9487 23.7632C41.9406 23.7632 41.8852 23.5354 39.7274 22.9661C38.7867 22.7383 38.1781 22.8522 38.1781 23.1938Z" fill="#FEF6CE"/>
<path d="M29.325 25.7557C28.2737 26.8375 27.7204 27.7485 27.9971 27.7485C28.7163 27.7485 31.8149 24.4462 31.4829 24.0476C31.3169 23.9338 30.3209 24.6739 29.325 25.7557Z" fill="#FEF6CE"/>
<path d="M39.008 26.0405C39.174 26.3252 39.4507 26.6099 39.6167 26.6099C39.7273 26.6099 39.838 26.3252 39.838 26.0405C39.838 25.6989 39.5613 25.4711 39.2294 25.4711C38.9527 25.4711 38.8421 25.6989 39.008 26.0405Z" fill="#FEF6CE"/>
<path d="M31.0404 27.237C29.5465 28.8881 30.0998 29.4575 31.6491 27.8633C32.313 27.18 32.7004 26.4968 32.5344 26.326C32.3684 26.0982 31.7044 26.5537 31.0404 27.237Z" fill="#FEF6CE"/>
<path d="M32.9216 28.8867C32.7556 29.1714 32.8663 29.4561 33.1429 29.4561C33.4749 29.4561 33.7516 29.1714 33.7516 28.8867C33.7516 28.5451 33.6409 28.3173 33.5303 28.3173C33.3643 28.3173 33.0876 28.5451 32.9216 28.8867Z" fill="#FEF6CE"/>
<path d="M5.2564 33.8412C5.03507 36.6311 4.75842 39.2502 4.64776 39.8196C4.48177 40.332 4.64776 40.9014 4.97974 41.1291C5.31173 41.3569 5.53305 40.2182 5.58838 37.8837C5.58838 35.891 5.8097 33.1011 6.03102 31.5638C6.25235 30.0834 6.25235 28.8877 6.03102 28.8877C5.8097 28.8877 5.47772 31.1083 5.2564 33.8412Z" fill="#FEF6CE"/>
<path d="M3.65176 30.8803C3.48577 31.3928 3.31978 32.6454 3.37511 33.6133C3.43044 35.2075 3.48577 35.0937 3.92842 32.9301C4.42639 30.311 4.2604 29.2292 3.65176 30.8803Z" fill="#FEF6CE"/>
<path d="M6.97148 32.9297C6.80549 33.8976 6.69482 36.0612 6.69482 37.6555C6.80549 40.0468 6.86082 39.8191 7.1928 36.0043C7.69077 31.1647 7.58011 29.9121 6.97148 32.9297Z" fill="#FEF6CE"/>
<path d="M8.85276 35.7195C8.52078 39.9898 8.57611 40.73 9.12941 40.1606C9.2954 39.9898 9.40607 37.9401 9.2954 35.6626L9.12941 31.4493L8.85276 35.7195Z" fill="#FEF6CE"/>
<path d="M72.5383 37.4852C72.483 40.5028 72.317 43.8621 72.151 44.887C71.9297 46.4243 71.985 46.5951 72.4276 45.8549C73.3129 44.4884 73.7556 36.9158 73.1469 34.2967C72.649 32.3039 72.5936 32.7025 72.5383 37.4852Z" fill="#FEF6CE"/>
<path d="M10.5682 36.4029C10.6236 40.2746 10.9002 39.876 11.1769 35.5488C11.2875 34.0685 11.1769 32.8728 10.9556 32.8728C10.6789 32.8728 10.5682 34.467 10.5682 36.4029Z" fill="#FEF6CE"/>
<path d="M12.9474 34.2396C12.7814 34.6381 12.7261 36.2324 12.8367 37.7697L13.0027 40.5596L13.2794 36.9726C13.556 33.3855 13.5007 32.8162 12.9474 34.2396Z" fill="#FEF6CE"/>
<path d="M14.9945 36.9726C14.9392 38.7945 15.1605 40.2749 15.4371 40.2749C15.7138 40.2749 15.7691 39.0792 15.6585 37.5419C15.2712 33.5564 15.0498 33.3286 14.9945 36.9726Z" fill="#FEF6CE"/>
<path d="M17.3184 37.4284C17.3184 39.1365 17.429 39.8767 17.5397 38.9657C17.6503 38.1117 17.6503 36.7452 17.5397 35.8342C17.429 34.9801 17.3184 35.7203 17.3184 37.4284Z" fill="#FEF6CE"/>
<path d="M76.4669 40.5594C76.4669 45.3421 76.5776 46.31 76.9649 44.7158C77.2415 43.5201 77.2415 40.7871 76.9649 38.4527L76.5222 34.2963L76.4669 40.5594Z" fill="#FEF6CE"/>
<path d="M2.87718 39.4212C2.82185 42.2111 2.98785 43.0651 3.31983 42.1541C3.59648 41.5278 3.59648 39.7059 3.31983 38.1686C2.87718 35.4356 2.87718 35.4356 2.87718 39.4212Z" fill="#FEF6CE"/>
<path d="M19.4209 37.6554C19.3656 39.3065 19.5316 39.762 19.9742 39.3065C20.4169 38.851 20.4169 38.2247 20.0295 37.0291C19.4762 35.4348 19.4762 35.4348 19.4209 37.6554Z" fill="#FEF6CE"/>
<path d="M21.579 37.087C21.579 37.8841 21.8556 38.5674 22.1323 38.5674C22.4643 38.5674 22.6856 38.055 22.6856 37.4856C22.6856 36.8593 22.4643 36.176 22.1323 36.0052C21.8003 35.7775 21.579 36.2899 21.579 37.087Z" fill="#FEF6CE"/>
<path d="M74.4195 52.0611C73.5342 54.1677 72.317 56.616 71.7083 57.4701C71.0997 58.3241 70.7677 59.1782 70.9337 59.349C71.653 60.1461 76.6881 50.1252 76.2454 48.7587C76.1348 48.474 75.3601 49.9544 74.4195 52.0611Z" fill="#FEF6CE"/>
<path d="M28.2185 49.9544C28.2185 50.3529 27.8312 50.4668 27.3332 50.296C26.7799 50.0682 26.5586 50.2391 26.6693 50.6376C26.8353 51.0362 27.3886 51.4917 27.9419 51.5486C28.4952 51.6625 28.7718 51.5486 28.5505 51.207C28.3845 50.8654 28.4952 50.5237 28.8825 50.4099C29.3805 50.2391 29.3805 50.0682 28.8825 49.7266C28.4952 49.4989 28.2185 49.6128 28.2185 49.9544Z" fill="#FEF6CE"/>
<path d="M34.8584 50.5237C34.8584 50.8084 35.5224 51.0931 36.4077 51.0361C37.7356 51.0361 37.7909 50.9792 36.795 50.5237C35.301 49.8405 34.8584 49.8405 34.8584 50.5237Z" fill="#FEF6CE"/>
<path d="M24.8988 50.9223C24.8988 51.6055 27.0014 53.6552 27.3887 53.2567C27.5547 53.1428 27.0567 52.4026 26.2821 51.6624C25.5074 50.9223 24.8988 50.5806 24.8988 50.9223Z" fill="#FEF6CE"/>
<path d="M23.2389 51.5479C23.2389 52.1172 24.6775 53.4837 26.0054 54.2239C26.4481 54.4516 26.1161 53.8823 25.2308 52.9143C23.4602 50.9785 23.2389 50.8077 23.2389 51.5479Z" fill="#FEF6CE"/>
<path d="M21.579 52.0032C21.579 52.7434 24.7882 55.9318 25.1755 55.5902C25.2861 55.4194 24.5668 54.3945 23.5155 53.3697C22.4643 52.2879 21.579 51.7185 21.579 52.0032Z" fill="#FEF6CE"/>
<path d="M21.3021 55.0785C22.4641 56.3311 23.7367 57.356 24.0133 57.356C24.3453 57.356 23.5707 56.3311 22.4088 55.0785C21.2468 53.8259 19.9742 52.801 19.6976 52.801C19.3656 52.801 20.1402 53.8259 21.3021 55.0785Z" fill="#FEF6CE"/>
<path d="M17.7057 53.8827C17.7057 54.1673 18.2036 54.7936 18.8123 55.363C19.9189 56.3879 20.3062 57.9252 19.4762 57.9252C19.1996 57.9252 18.425 57.2989 17.7057 56.5018C16.9864 55.7046 16.1564 55.0783 15.8244 55.0783C15.5478 55.0783 15.9351 55.8185 16.765 56.6726C19.3103 59.4055 18.425 60.0318 15.7691 57.3558C14.3858 55.9893 13.2792 55.1353 13.2792 55.42C13.2792 55.7616 13.7772 56.5018 14.3858 57.0711C15.7138 58.2668 15.8244 59.0639 14.7178 59.0639C14.2752 59.0639 13.3899 58.2668 12.7259 57.2989C12.0619 56.3879 11.3427 55.7046 11.1767 55.9324C11.0107 56.1032 11.564 57.0142 12.4493 57.9252C13.6112 59.1778 13.8879 59.8041 13.4452 60.2596C13.0026 60.7151 12.4493 60.3735 11.5086 58.8362C10.8447 57.6974 10.07 56.7864 9.84873 56.7864C9.18476 56.7864 9.29542 56.9572 10.7893 59.0639C12.6153 61.6261 11.8406 62.5371 9.84873 60.1457L8.24414 58.2099L9.51674 60.6581C10.236 61.9677 11.2873 63.5619 11.896 64.1882C14.2198 66.5226 17.1524 68.857 17.1524 68.3446C17.1524 68.0599 16.4331 67.2628 15.4924 66.5796C14.6072 65.8394 13.8325 64.9284 13.8325 64.4729C13.8325 64.0174 13.4452 63.6189 13.0026 63.6189C12.5599 63.6189 12.1726 63.2203 12.1726 62.7648C12.1726 62.3093 12.3386 61.9107 12.6153 61.9107C13.0579 61.9107 15.1605 64.2452 15.1605 64.7576C15.1605 65.1561 17.7057 66.4657 18.4803 66.4657C18.8123 66.4657 18.6463 66.0671 18.1483 65.6686C17.595 65.27 17.1524 64.6437 17.1524 64.2452C17.1524 63.9035 16.765 63.6189 16.3224 63.6189C15.8798 63.6189 15.4924 63.3342 15.4924 63.0495C15.4924 62.7079 15.8798 62.4801 16.3224 62.4801C16.765 62.4801 17.1524 62.0816 17.1524 61.6261C17.1524 60.6581 18.0376 60.4873 18.5356 61.3414C18.7016 61.683 18.4803 62.0816 18.0376 62.2524C16.8204 62.7648 16.931 63.448 18.3143 63.7897C19.1443 64.0174 19.3656 63.9035 19.1443 63.2772C18.8676 62.594 19.0889 62.4801 20.0849 62.8217C21.3021 63.1634 21.3021 63.1634 19.9742 61.683C18.3143 59.861 18.7569 59.1778 20.6935 60.4873C21.4681 61.0567 22.1321 61.2275 22.1321 60.9998C22.1321 60.7151 21.6341 60.1457 21.0255 59.7472C20.3615 59.3486 20.0295 58.7792 20.1955 58.4945C20.4169 58.1529 21.0808 58.3237 21.9108 58.8362C24.2347 60.4304 23.7367 59.4625 20.6935 56.3879C19.0336 54.7936 17.7057 53.6549 17.7057 53.8827ZM16.8757 60.772C16.5991 61.2275 16.2671 61.2275 15.9351 60.8859C15.6031 60.5443 15.5478 59.9749 15.7691 59.6333C16.0457 59.1778 16.3777 59.1778 16.7097 59.5194C17.0417 59.861 17.097 60.4304 16.8757 60.772ZM15.3818 61.3983C15.2711 61.7399 14.9391 61.9677 14.6625 61.9677C14.3858 61.9677 14.0538 61.7399 13.9432 61.3983C13.8325 61.0567 14.1645 60.772 14.6625 60.772C15.1605 60.772 15.4924 61.0567 15.3818 61.3983Z" fill="#FEF6CE"/>
<path d="M7.52496 60.8859C8.24426 62.1955 12.4494 67.8892 13.0027 68.2877C14.7179 69.5973 14.054 68.2877 11.3428 65.0423C9.68286 62.9926 8.29959 61.0568 8.29959 60.7721C8.29959 60.4304 8.02294 60.2027 7.69096 60.2027C7.4143 60.2027 7.30364 60.5443 7.52496 60.8859Z" fill="#FEF6CE"/>
<path d="M28.4952 60.7715C28.6612 61.0561 29.3805 61.3408 30.0445 61.3408C31.0405 61.3408 31.0958 61.2269 30.4318 60.7715C29.3252 60.0313 28.0526 60.0313 28.4952 60.7715Z" fill="#FEF6CE"/>
<path d="M66.0093 63.5616C64.4047 65.2697 63.0768 66.807 63.0768 66.864C63.0768 67.4333 67.1159 63.7894 68.1119 62.366C69.9931 59.6899 69.1078 60.2024 66.0093 63.5616Z" fill="#FEF6CE"/>
<path d="M25.4521 62.1384C25.4521 62.3092 26.2267 62.8786 27.1673 63.3341C28.6613 64.1312 29.1592 65.7824 27.8866 65.4977C27.61 65.4407 26.614 65.2699 25.7287 65.0991C24.1795 64.7575 24.1795 64.7575 25.3414 65.3838C26.6694 66.124 26.78 66.4087 26.0607 67.5474C25.6734 68.1168 25.3414 68.1737 24.4008 67.6613C23.7922 67.2627 23.2389 67.2058 23.2389 67.4905C23.2389 67.7751 24.0135 68.3445 24.8988 68.7431C26.5587 69.4263 27.0567 70.622 26.0054 71.3052C25.7287 71.476 25.4521 71.2483 25.4521 70.7928C25.4521 70.2804 25.1201 70.0526 24.6775 70.2234C24.2348 70.3942 23.3495 70.2804 22.7409 69.8818C22.0769 69.5402 21.5789 69.4833 21.5789 69.7679C21.5789 70.0526 22.1876 70.5651 22.9622 70.9067C23.7368 71.2483 24.3455 71.8177 24.3455 72.1023C24.3455 73.0703 23.2942 73.355 22.1322 72.7287C21.5236 72.387 21.0256 72.2732 21.0256 72.387C21.0256 72.5578 22.2429 73.355 23.7368 74.0951L26.3927 75.5186L27.0013 74.1521C27.3333 73.4688 27.444 72.3301 27.278 71.7038C27.1673 71.0775 27.278 70.3942 27.61 70.2234C27.942 69.9957 28.2186 69.1986 28.2186 68.4584C28.2186 67.7182 28.4399 67.035 28.6613 66.9211C28.9379 66.8072 29.3252 65.9532 29.4912 64.9852C29.7679 63.448 29.6572 63.1063 28.6059 62.8786C27.942 62.7647 26.946 62.4231 26.448 62.1953C25.8947 61.9676 25.4521 61.9107 25.4521 62.1384ZM27.1673 68.3445C26.7247 68.8 26.5587 68.7431 26.5587 68.1168C26.5587 66.978 27.278 66.1809 27.5546 67.035C27.7206 67.4335 27.4993 68.0029 27.1673 68.3445ZM25.2308 73.6966C24.6775 74.2659 24.1795 73.4119 24.6775 72.6717C25.0094 72.0454 25.1201 72.0454 25.3414 72.6717C25.4521 73.0703 25.3967 73.5258 25.2308 73.6966ZM26.78 73.5827C26.5587 74.0382 26.3374 74.4368 26.2267 74.4368C26.116 74.4368 26.0054 74.0382 26.0054 73.5827C26.0054 73.1272 26.2267 72.7287 26.5587 72.7287C26.8353 72.7287 26.946 73.1272 26.78 73.5827Z" fill="#FEF6CE"/>
<path d="M66.12 66.4658C65.5667 67.0921 65.3454 67.6045 65.6773 67.6045C65.954 67.6045 66.6733 67.0921 67.2266 66.4658C67.7799 65.8395 68.0012 65.327 67.6692 65.327C67.3926 65.327 66.6733 65.8395 66.12 66.4658Z" fill="#FEF6CE"/>
<path d="M59.1482 71.5327C58.4289 72.1021 57.101 72.9562 56.1603 73.4686C55.2751 73.981 54.7771 74.3796 55.1091 74.4365C55.773 74.4365 60.8634 71.1911 60.8634 70.7356C60.8634 70.2801 60.5315 70.394 59.1482 71.5327Z" fill="#FEF6CE"/>
<path d="M51.6234 75.1205C50.6274 75.4621 49.7975 75.9745 49.7975 76.2023C49.7975 76.43 50.7381 76.2592 51.9 75.7468C55.2199 74.3803 55.0539 73.9818 51.6234 75.1205Z" fill="#FEF6CE"/>
<path d="M32.4236 78.536C32.5896 78.7637 34.8581 78.9914 37.514 78.9345C40.1699 78.9345 42.1064 78.8206 41.7744 78.7068C40.5018 78.2513 32.1469 78.0805 32.4236 78.536Z" fill="#FEF6CE"/>
</svg>
