<svg width="330" height="146" viewBox="0 0 330 146" fill="none" xmlns="http://www.w3.org/2000/svg">
<ellipse cx="164.87" cy="22.4534" rx="22.4356" ry="22.4534" fill="#FEF6CE"/>
<path fill-rule="evenodd" clip-rule="evenodd" d="M295.547 67.3602C295.547 79.5954 285.637 89.5136 273.412 89.5136C267.442 89.5136 262.024 87.1484 258.043 83.3032L273.31 67.3603L288.675 51.3149C292.909 55.3501 295.547 61.0467 295.547 67.3602ZM257.835 83.5199L257.786 83.5712C253.49 79.4508 251.006 73.7913 250.879 67.8376C250.753 61.884 252.995 56.1238 257.112 51.8245C261.229 47.5251 266.884 45.0386 272.833 44.912C272.996 44.9085 273.16 44.9068 273.323 44.9069C273.352 44.9068 273.382 44.9067 273.412 44.9067C285.803 44.9067 295.847 54.9595 295.847 67.3602C295.847 79.7608 285.803 89.8136 273.412 89.8136C267.362 89.8136 261.871 87.4167 257.835 83.5199Z" fill="#FEF6CE"/>
<path fill-rule="evenodd" clip-rule="evenodd" d="M76.8596 67.3135C77.3513 73.2481 75.4674 79.1352 71.622 83.6797L71.4699 83.5508C67.4475 89.5828 60.5849 93.5561 52.7949 93.5561C40.4041 93.5561 30.3594 83.5034 30.3594 71.1027C30.3594 64.6411 33.0867 58.817 37.4521 54.7204L37.3795 54.6589C41.2249 50.1144 46.7165 47.2849 52.6465 46.7927C58.5764 46.3005 64.4588 48.186 68.9996 52.0344C73.5405 55.8828 76.3678 61.3789 76.8596 67.3135ZM37.6825 54.9156C33.3607 58.9587 30.6594 64.7149 30.6594 71.1027C30.6594 83.3379 40.57 93.2561 52.7949 93.2561C60.4931 93.2561 67.2735 89.3232 71.2395 83.3555L54.5008 69.1693L37.6825 54.9156Z" fill="#FEF6CE"/>
<mask id="path-4-inside-1_3043_10752" fill="white">
<path fill-rule="evenodd" clip-rule="evenodd" d="M221.01 11.2266C220.993 11.2266 220.976 11.2266 220.959 11.2266C208.568 11.2266 198.523 21.2793 198.523 33.68C198.523 46.0807 208.568 56.1334 220.959 56.1334C220.959 56.1333 220.959 56.1332 220.959 56.1332C220.993 56.1333 221.027 56.1334 221.061 56.1334C233.452 56.1334 243.497 46.0807 243.497 33.68C243.497 21.2793 233.452 11.2266 221.061 11.2266C221.044 11.2266 221.027 11.2266 221.01 11.2266ZM220.961 55.8332C221.121 43.6367 230.997 33.7863 243.197 33.6808C243.196 45.9157 233.286 55.8334 221.061 55.8334C221.028 55.8334 220.994 55.8333 220.961 55.8332Z"/>
</mask>
<path fill-rule="evenodd" clip-rule="evenodd" d="M221.01 11.2266C220.993 11.2266 220.976 11.2266 220.959 11.2266C208.568 11.2266 198.523 21.2793 198.523 33.68C198.523 46.0807 208.568 56.1334 220.959 56.1334C220.959 56.1333 220.959 56.1332 220.959 56.1332C220.993 56.1333 221.027 56.1334 221.061 56.1334C233.452 56.1334 243.497 46.0807 243.497 33.68C243.497 21.2793 233.452 11.2266 221.061 11.2266C221.044 11.2266 221.027 11.2266 221.01 11.2266ZM220.961 55.8332C221.121 43.6367 230.997 33.7863 243.197 33.6808C243.196 45.9157 233.286 55.8334 221.061 55.8334C221.028 55.8334 220.994 55.8333 220.961 55.8332Z" fill="#FEF6CE"/>
<path d="M221.01 11.2266L221.008 12.2266L221.012 12.2266L221.01 11.2266ZM220.959 56.1334V57.1334H221.959V56.1334H220.959ZM220.959 56.1332L220.963 55.1332L219.959 55.1287V56.1332H220.959ZM220.961 55.8332L219.961 55.8201L219.948 56.8287L220.957 56.8332L220.961 55.8332ZM243.197 33.6808L244.197 33.6809L244.197 32.6722L243.188 32.6809L243.197 33.6808ZM221.012 10.2266C220.995 10.2266 220.977 10.2266 220.959 10.2266V12.2266C220.975 12.2266 220.992 12.2266 221.008 12.2266L221.012 10.2266ZM220.959 10.2266C208.015 10.2266 197.523 20.7278 197.523 33.68H199.523C199.523 21.8308 209.121 12.2266 220.959 12.2266V10.2266ZM197.523 33.68C197.523 46.6322 208.015 57.1334 220.959 57.1334V55.1334C209.121 55.1334 199.523 45.5291 199.523 33.68H197.523ZM221.959 56.1334C221.959 56.1334 221.959 56.1334 221.959 56.1334C221.959 56.1334 221.959 56.1334 221.959 56.1334V56.1334C221.959 56.1334 221.959 56.1334 221.959 56.1334V56.1334C221.959 56.1334 221.959 56.1334 221.959 56.1334V56.1334C221.959 56.1334 221.959 56.1334 221.959 56.1334V56.1334C221.959 56.1334 221.959 56.1334 221.959 56.1334V56.1334C221.959 56.1334 221.959 56.1334 221.959 56.1334C221.959 56.1334 221.959 56.1334 221.959 56.1334C221.959 56.1333 221.959 56.1333 221.959 56.1333C221.959 56.1333 221.959 56.1333 221.959 56.1333C221.959 56.1333 221.959 56.1333 221.959 56.1333C221.959 56.1333 221.959 56.1333 221.959 56.1333C221.959 56.1333 221.959 56.1333 221.959 56.1333C221.959 56.1333 221.959 56.1333 221.959 56.1333V56.1333C221.959 56.1333 221.959 56.1333 221.959 56.1333V56.1333C221.959 56.1333 221.959 56.1333 221.959 56.1333V56.1333C221.959 56.1333 221.959 56.1333 221.959 56.1333V56.1333C221.959 56.1333 221.959 56.1333 221.959 56.1333V56.1333C221.959 56.1333 221.959 56.1333 221.959 56.1333C221.959 56.1333 221.959 56.1333 221.959 56.1333C221.959 56.1333 221.959 56.1333 221.959 56.1333C221.959 56.1333 221.959 56.1333 221.959 56.1333V56.1333C221.959 56.1333 221.959 56.1333 221.959 56.1333V56.1333C221.959 56.1333 221.959 56.1333 221.959 56.1333V56.1333C221.959 56.1333 221.959 56.1333 221.959 56.1333V56.1333C221.959 56.1332 221.959 56.1332 221.959 56.1332V56.1332C221.959 56.1332 221.959 56.1332 221.959 56.1332C221.959 56.1332 221.959 56.1332 221.959 56.1332C221.959 56.1332 221.959 56.1332 221.959 56.1332C221.959 56.1332 221.959 56.1332 221.959 56.1332C221.959 56.1332 221.959 56.1332 221.959 56.1332C221.959 56.1332 221.959 56.1332 221.959 56.1332C221.959 56.1332 221.959 56.1332 221.959 56.1332C221.959 56.1332 221.959 56.1332 221.959 56.1332V56.1332C221.959 56.1332 221.959 56.1332 221.959 56.1332V56.1332C221.959 56.1332 221.959 56.1332 221.959 56.1332V56.1332C221.959 56.1332 221.959 56.1332 221.959 56.1332V56.1332C221.959 56.1332 221.959 56.1332 221.959 56.1332V56.1332C221.959 56.1332 221.959 56.1332 221.959 56.1332C221.959 56.1332 221.959 56.1332 221.959 56.1332H219.959C219.959 56.1332 219.959 56.1332 219.959 56.1332C219.959 56.1332 219.959 56.1332 219.959 56.1332V56.1332C219.959 56.1332 219.959 56.1332 219.959 56.1332V56.1332C219.959 56.1332 219.959 56.1332 219.959 56.1332V56.1332C219.959 56.1332 219.959 56.1332 219.959 56.1332V56.1332C219.959 56.1332 219.959 56.1332 219.959 56.1332V56.1332C219.959 56.1332 219.959 56.1332 219.959 56.1332C219.959 56.1332 219.959 56.1332 219.959 56.1332C219.959 56.1332 219.959 56.1332 219.959 56.1332C219.959 56.1332 219.959 56.1332 219.959 56.1332C219.959 56.1332 219.959 56.1332 219.959 56.1332C219.959 56.1332 219.959 56.1332 219.959 56.1332C219.959 56.1332 219.959 56.1332 219.959 56.1332C219.959 56.1332 219.959 56.1332 219.959 56.1332V56.1332C219.959 56.1332 219.959 56.1332 219.959 56.1333V56.1333C219.959 56.1333 219.959 56.1333 219.959 56.1333V56.1333C219.959 56.1333 219.959 56.1333 219.959 56.1333V56.1333C219.959 56.1333 219.959 56.1333 219.959 56.1333V56.1333C219.959 56.1333 219.959 56.1333 219.959 56.1333C219.959 56.1333 219.959 56.1333 219.959 56.1333C219.959 56.1333 219.959 56.1333 219.959 56.1333C219.959 56.1333 219.959 56.1333 219.959 56.1333V56.1333C219.959 56.1333 219.959 56.1333 219.959 56.1333V56.1333C219.959 56.1333 219.959 56.1333 219.959 56.1333V56.1333C219.959 56.1333 219.959 56.1333 219.959 56.1333V56.1333C219.959 56.1333 219.959 56.1333 219.959 56.1333V56.1333C219.959 56.1333 219.959 56.1333 219.959 56.1333C219.959 56.1333 219.959 56.1333 219.959 56.1333C219.959 56.1333 219.959 56.1333 219.959 56.1333C219.959 56.1333 219.959 56.1333 219.959 56.1333C219.959 56.1333 219.959 56.1333 219.959 56.1333C219.959 56.1333 219.959 56.1333 219.959 56.1334C219.959 56.1334 219.959 56.1334 219.959 56.1334C219.959 56.1334 219.959 56.1334 219.959 56.1334V56.1334C219.959 56.1334 219.959 56.1334 219.959 56.1334V56.1334C219.959 56.1334 219.959 56.1334 219.959 56.1334V56.1334C219.959 56.1334 219.959 56.1334 219.959 56.1334V56.1334C219.959 56.1334 219.959 56.1334 219.959 56.1334V56.1334C219.959 56.1334 219.959 56.1334 219.959 56.1334C219.959 56.1334 219.959 56.1334 219.959 56.1334H221.959ZM220.955 57.1332C220.99 57.1333 221.026 57.1334 221.061 57.1334V55.1334C221.029 55.1334 220.996 55.1333 220.963 55.1332L220.955 57.1332ZM221.061 57.1334C234.005 57.1334 244.497 46.6322 244.497 33.68H242.497C242.497 45.5291 232.899 55.1334 221.061 55.1334V57.1334ZM244.497 33.68C244.497 20.7278 234.005 10.2266 221.061 10.2266V12.2266C232.899 12.2266 242.497 21.8308 242.497 33.68H244.497ZM221.061 10.2266C221.043 10.2266 221.026 10.2266 221.008 10.2266L221.012 12.2266C221.029 12.2266 221.045 12.2266 221.061 12.2266V10.2266ZM221.961 55.8463C222.113 44.1926 231.55 34.7815 243.205 34.6808L243.188 32.6809C230.444 32.791 220.128 43.0808 219.961 55.8201L221.961 55.8463ZM221.061 56.8334C233.839 56.8334 244.196 46.4672 244.197 33.6809L242.197 33.6808C242.196 45.3641 232.733 54.8334 221.061 54.8334V56.8334ZM220.957 56.8332C220.991 56.8333 221.026 56.8334 221.061 56.8334V54.8334C221.029 54.8334 220.997 54.8333 220.965 54.8332L220.957 56.8332Z" fill="#92702A" mask="url(#path-4-inside-1_3043_10752)"/>
<mask id="path-6-inside-2_3043_10752" fill="white">
<path fill-rule="evenodd" clip-rule="evenodd" d="M127.401 40.6246C129.195 28.3626 120.722 16.9629 108.469 15.1579C96.2107 13.352 84.8102 21.8336 83.0058 34.1021C83.006 34.1021 83.0061 34.1022 83.0063 34.1022C83.0012 34.1359 82.9961 34.1697 82.9912 34.2035C81.1867 46.472 89.6616 57.8815 101.92 59.6874C114.179 61.4933 125.579 53.0116 127.384 40.7432C127.39 40.7036 127.395 40.6641 127.401 40.6246ZM83.3028 34.1479C95.3362 36.0824 103.635 47.2957 101.963 59.3904C89.8689 57.6082 81.5077 46.3516 83.288 34.2472C83.2928 34.2141 83.2978 34.181 83.3028 34.1479Z"/>
</mask>
<path fill-rule="evenodd" clip-rule="evenodd" d="M127.401 40.6246C129.195 28.3626 120.722 16.9629 108.469 15.1579C96.2107 13.352 84.8102 21.8336 83.0058 34.1021C83.006 34.1021 83.0061 34.1022 83.0063 34.1022C83.0012 34.1359 82.9961 34.1697 82.9912 34.2035C81.1867 46.472 89.6616 57.8815 101.92 59.6874C114.179 61.4933 125.579 53.0116 127.384 40.7432C127.39 40.7036 127.395 40.6641 127.401 40.6246ZM83.3028 34.1479C95.3362 36.0824 103.635 47.2957 101.963 59.3904C89.8689 57.6082 81.5077 46.3516 83.288 34.2472C83.2928 34.2141 83.2978 34.181 83.3028 34.1479Z" fill="#FEF6CE"/>
<path d="M127.401 40.6246L126.412 40.4798L126.411 40.4843L127.401 40.6246ZM108.469 15.1579L108.615 14.1685V14.1685L108.469 15.1579ZM83.0058 34.1021L82.0164 33.9566L81.8715 34.9421L82.8564 35.0909L83.0058 34.1021ZM83.0063 34.1022L83.995 34.2521L84.145 33.2628L83.1557 33.1134L83.0063 34.1022ZM82.9912 34.2035L82.0018 34.058L82.0018 34.058L82.9912 34.2035ZM101.92 59.6874L102.066 58.6981L101.92 59.6874ZM127.384 40.7432L128.373 40.8887V40.8887L127.384 40.7432ZM83.3028 34.1479L83.4615 33.1605L82.4654 33.0004L82.3141 33.998L83.3028 34.1479ZM101.963 59.3904L101.817 60.3797L102.815 60.5268L102.953 59.5274L101.963 59.3904ZM83.288 34.2472L84.2773 34.3928H84.2773L83.288 34.2472ZM128.391 40.7694C130.264 27.9621 121.415 16.0541 108.615 14.1685L108.324 16.1472C120.03 17.8717 128.126 28.7632 126.412 40.4798L128.391 40.7694ZM108.615 14.1685C95.8092 12.2821 83.9011 21.1423 82.0164 33.9566L83.9951 34.2476C85.7193 22.5249 96.6121 14.4219 108.324 16.1472L108.615 14.1685ZM82.8564 35.0909L82.857 35.091L83.1557 33.1134L83.1551 33.1133L82.8564 35.0909ZM82.0176 33.9523C82.0123 33.9874 82.007 34.0227 82.0018 34.058L83.9805 34.349C83.9853 34.3167 83.9901 34.2844 83.995 34.2521L82.0176 33.9523ZM82.0018 34.058C80.1171 46.8721 88.9689 58.7903 101.775 60.6767L102.066 58.6981C90.3544 56.9728 82.2563 46.0719 83.9805 34.349L82.0018 34.058ZM101.775 60.6767C114.581 62.5632 126.489 53.7029 128.373 40.8887L126.395 40.5976C124.67 52.3203 113.778 60.4233 102.066 58.6981L101.775 60.6767ZM128.373 40.8887C128.379 40.8474 128.385 40.8062 128.391 40.7649L126.411 40.4843C126.406 40.522 126.4 40.5598 126.395 40.5976L128.373 40.8887ZM83.1441 35.1352C94.6402 36.9833 102.57 47.6969 100.972 59.2534L102.953 59.5274C104.7 46.8946 96.0322 35.1814 83.4615 33.1605L83.1441 35.1352ZM82.2986 34.1017C80.4381 46.7517 89.1761 58.5169 101.817 60.3797L102.109 58.4011C90.5616 56.6995 82.5773 45.9516 84.2773 34.3928L82.2986 34.1017ZM82.3141 33.998C82.3089 34.0325 82.3037 34.0671 82.2986 34.1017L84.2773 34.3928C84.282 34.3611 84.2867 34.3294 84.2915 34.2978L82.3141 33.998Z" fill="#92702A" mask="url(#path-6-inside-2_3043_10752)"/>
<mask id="path-8-inside-3_3043_10752" fill="white">
<path fill-rule="evenodd" clip-rule="evenodd" d="M307.013 89.8135C307.03 89.8135 307.047 89.8135 307.064 89.8135C319.455 89.8135 329.5 99.8662 329.5 112.267C329.5 124.668 319.455 134.72 307.064 134.72C301.673 134.72 296.726 132.817 292.858 129.646C292.868 129.682 292.878 129.718 292.889 129.755C287.789 125.639 284.526 119.334 284.526 112.267C284.526 99.8662 294.571 89.8135 306.962 89.8135C306.979 89.8135 306.996 89.8135 307.013 89.8135ZM292.72 129.14C296.584 132.433 301.592 134.42 307.064 134.42C319.289 134.42 329.2 124.502 329.2 112.267C329.2 110.012 328.863 107.836 328.238 105.787C324.432 102.812 319.643 101.04 314.44 101.04C302.05 101.04 292.005 111.093 292.005 123.494C292.005 125.444 292.253 127.336 292.72 129.14Z"/>
</mask>
<path fill-rule="evenodd" clip-rule="evenodd" d="M307.013 89.8135C307.03 89.8135 307.047 89.8135 307.064 89.8135C319.455 89.8135 329.5 99.8662 329.5 112.267C329.5 124.668 319.455 134.72 307.064 134.72C301.673 134.72 296.726 132.817 292.858 129.646C292.868 129.682 292.878 129.718 292.889 129.755C287.789 125.639 284.526 119.334 284.526 112.267C284.526 99.8662 294.571 89.8135 306.962 89.8135C306.979 89.8135 306.996 89.8135 307.013 89.8135ZM292.72 129.14C296.584 132.433 301.592 134.42 307.064 134.42C319.289 134.42 329.2 124.502 329.2 112.267C329.2 110.012 328.863 107.836 328.238 105.787C324.432 102.812 319.643 101.04 314.44 101.04C302.05 101.04 292.005 111.093 292.005 123.494C292.005 125.444 292.253 127.336 292.72 129.14Z" fill="#FEF6CE"/>
<path d="M307.013 89.8135L307.011 90.8135L307.015 90.8135L307.013 89.8135ZM292.858 129.646L293.492 128.873L291.024 126.85L291.896 129.919L292.858 129.646ZM292.889 129.755L292.261 130.533L294.733 132.528L293.849 129.477L292.889 129.755ZM292.72 129.14L291.752 129.391L291.831 129.697L292.072 129.902L292.72 129.14ZM328.238 105.787L329.194 105.495L329.102 105.193L328.853 104.999L328.238 105.787ZM307.064 88.8135C307.046 88.8135 307.029 88.8135 307.011 88.8135L307.015 90.8135C307.032 90.8135 307.048 90.8135 307.064 90.8135V88.8135ZM330.5 112.267C330.5 99.3147 320.008 88.8135 307.064 88.8135V90.8135C318.902 90.8135 328.5 100.418 328.5 112.267H330.5ZM307.064 135.72C320.008 135.72 330.5 125.219 330.5 112.267H328.5C328.5 124.116 318.902 133.72 307.064 133.72V135.72ZM292.224 130.42C296.265 133.732 301.434 135.72 307.064 135.72V133.72C301.913 133.72 297.188 131.903 293.492 128.873L292.224 130.42ZM291.896 129.919C291.906 129.957 291.917 129.995 291.928 130.033L293.849 129.477C293.839 129.442 293.829 129.407 293.82 129.373L291.896 129.919ZM293.517 128.976C288.642 125.042 285.526 119.019 285.526 112.267H283.526C283.526 119.649 286.936 126.235 292.261 130.533L293.517 128.976ZM285.526 112.267C285.526 100.418 295.124 90.8135 306.962 90.8135V88.8135C294.018 88.8135 283.526 99.3147 283.526 112.267H285.526ZM306.962 90.8135C306.978 90.8135 306.995 90.8135 307.011 90.8135L307.015 88.8135C306.997 88.8135 306.98 88.8135 306.962 88.8135V90.8135ZM292.072 129.902C296.109 133.343 301.345 135.42 307.064 135.42V133.42C301.839 133.42 297.058 131.524 293.369 128.379L292.072 129.902ZM307.064 135.42C319.842 135.42 330.2 125.054 330.2 112.267H328.2C328.2 123.951 318.736 133.42 307.064 133.42V135.42ZM330.2 112.267C330.2 109.912 329.848 107.638 329.194 105.495L327.281 106.079C327.878 108.035 328.2 110.112 328.2 112.267H330.2ZM328.853 104.999C324.878 101.892 319.874 100.04 314.44 100.04V102.04C319.412 102.04 323.986 103.733 327.622 106.575L328.853 104.999ZM314.44 100.04C301.497 100.04 291.005 110.541 291.005 123.494H293.005C293.005 111.644 302.603 102.04 314.44 102.04V100.04ZM291.005 123.494C291.005 125.529 291.264 127.506 291.752 129.391L293.688 128.89C293.242 127.167 293.005 125.359 293.005 123.494H291.005Z" fill="#92702A" mask="url(#path-8-inside-3_3043_10752)"/>
<mask id="path-10-inside-4_3043_10752" fill="white">
<path fill-rule="evenodd" clip-rule="evenodd" d="M45.2383 121.085C46.5886 133.329 37.8188 144.393 25.573 145.842C13.268 147.299 2.11292 138.497 0.657486 126.182C0.0243026 120.824 1.33124 115.684 4.02325 111.467C3.98908 111.481 3.95496 111.496 3.92089 111.51C7.40597 105.958 13.2788 101.975 20.2915 101.145C32.5965 99.6883 43.7516 108.491 45.207 120.806C45.218 120.899 45.2284 120.992 45.2383 121.085ZM4.50901 111.271C1.69601 115.498 0.312683 120.708 0.955405 126.146C2.39142 138.297 13.3975 146.981 25.5378 145.544C27.7755 145.279 29.8956 144.689 31.8564 143.826C34.3605 139.695 35.5564 134.727 34.9453 129.557C33.4899 117.242 22.3348 108.44 10.0298 109.896C8.09391 110.125 6.2449 110.595 4.50901 111.271Z"/>
</mask>
<path fill-rule="evenodd" clip-rule="evenodd" d="M45.2383 121.085C46.5886 133.329 37.8188 144.393 25.573 145.842C13.268 147.299 2.11292 138.497 0.657486 126.182C0.0243026 120.824 1.33124 115.684 4.02325 111.467C3.98908 111.481 3.95496 111.496 3.92089 111.51C7.40597 105.958 13.2788 101.975 20.2915 101.145C32.5965 99.6883 43.7516 108.491 45.207 120.806C45.218 120.899 45.2284 120.992 45.2383 121.085ZM4.50901 111.271C1.69601 115.498 0.312683 120.708 0.955405 126.146C2.39142 138.297 13.3975 146.981 25.5378 145.544C27.7755 145.279 29.8956 144.689 31.8564 143.826C34.3605 139.695 35.5564 134.727 34.9453 129.557C33.4899 117.242 22.3348 108.44 10.0298 109.896C8.09391 110.125 6.2449 110.595 4.50901 111.271Z" fill="#FEF6CE"/>
<path d="M25.573 145.842L25.4555 144.849L25.573 145.842ZM45.2383 121.085L44.2438 121.19L44.2443 121.194L45.2383 121.085ZM0.657486 126.182L1.65057 126.064L0.657486 126.182ZM4.02325 111.467L4.86616 112.005L6.5824 109.316L3.63836 110.544L4.02325 111.467ZM3.92089 111.51L3.07393 110.978L1.38577 113.668L4.31036 112.431L3.92089 111.51ZM20.2915 101.145L20.1739 100.152L20.2915 101.145ZM45.207 120.806L46.2001 120.688L46.2001 120.688L45.207 120.806ZM4.50901 111.271L4.14596 110.339L3.85159 110.454L3.67655 110.717L4.50901 111.271ZM0.955405 126.146L1.94849 126.029L0.955405 126.146ZM25.5378 145.544L25.6554 146.537H25.6554L25.5378 145.544ZM31.8564 143.826L32.2592 144.742L32.548 144.615L32.7116 144.345L31.8564 143.826ZM34.9453 129.557L33.9522 129.674L34.9453 129.557ZM10.0298 109.896L10.1473 110.889H10.1473L10.0298 109.896ZM25.6906 146.835C38.4829 145.321 47.6427 133.764 46.2323 120.975L44.2443 121.194C45.5346 132.894 37.1548 143.464 25.4555 144.849L25.6906 146.835ZM-0.335603 126.299C1.18458 139.162 12.8363 148.357 25.6906 146.835L25.4555 144.849C13.6997 146.241 3.04127 137.831 1.65057 126.064L-0.335603 126.299ZM3.18033 110.929C0.368654 115.334 -0.996854 120.704 -0.335603 126.299L1.65057 126.064C1.04546 120.944 2.29383 116.035 4.86616 112.005L3.18033 110.929ZM3.63836 110.544C3.60266 110.559 3.56701 110.574 3.53142 110.589L4.31036 112.431C4.34291 112.417 4.3755 112.404 4.40813 112.39L3.63836 110.544ZM4.76786 112.042C8.09913 106.735 13.7096 102.931 20.409 102.138L20.1739 100.152C12.8479 101.019 6.71282 105.181 3.07393 110.978L4.76786 112.042ZM20.409 102.138C32.1648 100.746 42.8232 109.156 44.2139 120.923L46.2001 120.688C44.6799 107.825 33.0282 98.6302 20.1739 100.152L20.409 102.138ZM44.2139 120.923C44.2245 121.012 44.2344 121.101 44.2438 121.19L46.2327 120.979C46.2225 120.882 46.2116 120.785 46.2001 120.688L44.2139 120.923ZM3.67655 110.717C0.736919 115.134 -0.709298 120.581 -0.0376834 126.264L1.94849 126.029C1.33466 120.835 2.65511 115.861 5.34147 111.825L3.67655 110.717ZM-0.0376834 126.264C1.46308 138.962 12.9658 148.04 25.6554 146.537L25.4203 144.551C13.8292 145.923 3.31977 137.632 1.94849 126.029L-0.0376834 126.264ZM25.6554 146.537C27.9926 146.261 30.2087 145.644 32.2592 144.742L31.4537 142.911C29.5825 143.734 27.5585 144.298 25.4203 144.551L25.6554 146.537ZM32.7116 144.345C35.3271 140.029 36.5766 134.839 35.9384 129.439L33.9522 129.674C34.5363 134.616 33.3938 139.361 31.0012 143.308L32.7116 144.345ZM35.9384 129.439C34.4182 116.577 22.7665 107.382 9.91223 108.903L10.1473 110.889C21.9031 109.498 32.5615 117.907 33.9522 129.674L35.9384 129.439ZM9.91223 108.903C7.89154 109.142 5.96007 109.633 4.14596 110.339L4.87206 112.203C6.52973 111.557 8.29629 111.108 10.1473 110.889L9.91223 108.903Z" fill="#92702A" mask="url(#path-10-inside-4_3043_10752)"/>
</svg>
